<svg width="211" height="80" viewBox="0 0 211 80" fill="none" xmlns="http://www.w3.org/2000/svg">
<path d="M17.404 26.2951C17.824 26.5698 18.179 26.9409 18.442 27.3804C18.705 27.82 18.8693 28.3164 18.9223 28.8322C19.2697 29.0042 19.6493 29.0929 20.0334 29.0919C20.5524 29.0919 21.0597 28.931 21.4915 28.6295C21.9233 28.328 22.2603 27.8993 22.4601 27.3975C22.6599 26.8957 22.7135 26.3432 22.6142 25.8095C22.5148 25.2758 22.267 24.7849 21.9019 24.3985C21.5369 24.0121 21.0708 23.7476 20.5625 23.6381C20.0542 23.5287 19.5264 23.5793 19.0455 23.7836C18.5645 23.9878 18.1521 24.3366 17.86 24.786C17.5679 25.2354 17.4092 25.7653 17.404 26.309V26.2951ZM15.682 31.9491C16.2027 31.9527 16.7128 31.7945 17.1478 31.4946C17.5827 31.1946 17.9231 30.7662 18.1258 30.2636C18.3285 29.761 18.3844 29.2068 18.2866 28.6709C18.1887 28.135 17.9415 27.6415 17.5761 27.2528C17.2106 26.8641 16.7434 26.5976 16.2335 26.487C15.7236 26.3764 15.1938 26.4266 14.7111 26.6314C14.2285 26.8361 13.8145 27.1862 13.5217 27.6374C13.2288 28.0886 13.0702 28.6205 13.0658 29.1661C13.0623 29.5291 13.1273 29.8892 13.257 30.2258C13.3868 30.5624 13.5787 30.8688 13.8218 31.1274C14.0649 31.386 14.3544 31.5917 14.6737 31.7327C14.9929 31.8737 15.3356 31.9472 15.682 31.9491ZM16.7975 32.1346H14.5842C14.1408 32.1328 13.7015 32.2225 13.2913 32.3987C12.8811 32.575 12.508 32.8342 12.1935 33.1616C11.879 33.4889 11.6292 33.8781 11.4583 34.3067C11.2874 34.7354 11.1989 35.1951 11.1977 35.6596V38.5631L11.3881 38.6281C12.8677 39.1266 14.4111 39.3862 15.9653 39.398C17.3318 39.4419 18.6911 39.1744 19.9493 38.6142L20.122 38.5214V35.6596C20.1209 34.7314 19.7719 33.8408 19.15 33.1797C18.5282 32.5186 17.6833 32.1399 16.7975 32.1253V32.1346ZM21.149 29.2914H18.9356C18.909 30.1836 18.5499 31.0294 17.9352 31.6476C18.761 31.9032 19.4855 32.4323 20.0002 33.1556C20.515 33.8789 20.7922 34.7574 20.7904 35.6596V36.5409C22.009 36.5349 23.2138 36.2698 24.3318 35.7617L24.5088 35.6689V32.8118C24.5077 31.8776 24.1536 30.9819 23.524 30.3205C22.8944 29.6591 22.0405 29.2858 21.149 29.2821V29.2914ZM11.0649 29.1012C11.5596 29.0998 12.0441 28.9536 12.4638 28.6791C12.5907 27.8159 13.0297 27.037 13.69 26.5038C13.69 26.4482 13.69 26.3971 13.69 26.3461C13.69 25.8012 13.5358 25.2685 13.2468 24.8155C12.9579 24.3624 12.5472 24.0093 12.0668 23.8007C11.5863 23.5922 11.0576 23.5377 10.5475 23.644C10.0375 23.7503 9.56893 24.0127 9.2012 24.398C8.83346 24.7833 8.58303 25.2742 8.48157 25.8086C8.38011 26.3431 8.43218 26.897 8.6312 27.4004C8.83022 27.9039 9.16724 28.3342 9.59966 28.6369C10.0321 28.9396 10.5404 29.1012 11.0605 29.1012H11.0649ZM13.4288 31.6569C12.8124 31.0419 12.4528 30.1967 12.4284 29.3053C12.3458 29.3007 12.263 29.3007 12.1805 29.3053H9.96711C9.07403 29.3065 8.21786 29.6788 7.58636 30.3405C6.95486 31.0021 6.59956 31.8992 6.59839 32.835V35.706L6.78431 35.7663C8.01422 36.1799 9.28867 36.4308 10.578 36.513V35.6596C10.5759 34.758 10.8525 33.8799 11.3664 33.1567C11.8803 32.4335 12.6038 31.904 13.4288 31.6476V31.6569Z" fill="#5D4D35"/>
<path d="M61.077 67.267L59.2905 60.6575V48.6959C59.2893 47.815 58.9336 46.9706 58.3014 46.3477C57.6693 45.7249 56.8122 45.3744 55.9181 45.3732H38.7554C37.8613 45.3744 37.0043 45.7249 36.3721 46.3477C35.7399 46.9706 35.3842 47.815 35.383 48.6959V60.6575L33.592 67.267C33.4592 67.6792 33.4301 68.1171 33.507 68.5429C33.5839 68.9687 33.7646 69.3697 34.0336 69.7116C34.3025 70.0534 34.6517 70.3258 35.051 70.5053C35.4504 70.6849 35.888 70.7662 36.3264 70.7423H58.3927C58.8288 70.7616 59.2632 70.677 59.6589 70.4955C60.0546 70.314 60.4 70.0411 60.6658 69.6999C60.9315 69.3587 61.1098 68.9594 61.1853 68.5358C61.2609 68.1122 61.2315 67.677 61.0998 67.267H61.077ZM38.7463 47.1872H55.909C56.3148 47.1884 56.7035 47.3477 56.9904 47.6304C57.2774 47.9131 57.4391 48.2961 57.4403 48.6959V60.3702H37.2196V48.6959C37.2208 48.2954 37.3831 47.9116 37.671 47.6288C37.9589 47.346 38.3489 47.1872 38.7554 47.1872H38.7463ZM59.1766 68.596C59.076 68.7099 58.95 68.7992 58.8084 68.8568C58.6669 68.9145 58.5136 68.9389 58.3608 68.9283H36.299C36.1467 68.9454 35.9926 68.923 35.8518 68.8633C35.711 68.8036 35.5885 68.7088 35.4964 68.5881C35.4043 68.4674 35.3458 68.3251 35.3267 68.1753C35.3076 68.0254 35.3286 67.8733 35.3876 67.7339L37.2105 60.9988V60.9449H57.4904V61.0347L59.3133 67.7699C59.3566 67.9081 59.3675 68.0543 59.3454 68.1973C59.3233 68.3404 59.2687 68.4767 59.1857 68.596H59.1766Z" fill="#5D4D35"/>
<path d="M38.669 59.5597H56.08C56.2447 59.5585 56.4023 59.492 56.5183 59.3747C56.6344 59.2575 56.6995 59.099 56.6995 58.9337V48.4871C56.6995 48.3223 56.6342 48.1643 56.518 48.0477C56.4019 47.9312 56.2443 47.8658 56.08 47.8658H38.669C38.5043 47.8658 38.3462 47.9311 38.2293 48.0475C38.1124 48.1638 38.0461 48.3219 38.0449 48.4871V58.9337C38.0461 59.0994 38.1122 59.2579 38.229 59.375C38.3458 59.4921 38.5038 59.5585 38.669 59.5597Z" fill="#5D4D35"/>
<path d="M43.6341 65.0746L43.0161 67.7612H51.3743L50.752 65.0746H43.6341Z" fill="#5D4D35"/>
<path d="M47.4702 17.1418C47.4691 17.1185 47.4597 17.0965 47.4437 17.08C47.4277 17.0635 47.4063 17.0537 47.3837 17.0526C47.3857 17.0446 47.3861 17.0362 47.3849 17.028C47.3837 17.0198 47.3809 17.012 47.3766 17.005C47.3723 16.9979 47.3667 16.9919 47.3601 16.9871C47.3535 16.9824 47.3461 16.9791 47.3382 16.9775C47.1782 16.9377 47.0152 16.9126 46.8509 16.9024C46.8555 16.8903 46.8555 16.8769 46.8509 16.8648C46.7062 16.5153 46.6316 16.1393 46.6316 15.7593C46.6316 15.3793 46.7062 15.0033 46.8509 14.6538L47.2517 14.6256C47.2652 14.625 47.2785 14.6216 47.2908 14.6156C47.303 14.6095 47.314 14.601 47.3229 14.5904C47.3319 14.5799 47.3386 14.5676 47.3428 14.5543C47.347 14.5409 47.3485 14.5269 47.3473 14.5129C47.361 14.4275 47.361 14.3402 47.3473 14.2548C47.3538 14.1464 47.3477 14.0377 47.3291 13.9308C47.3291 13.9027 47.3017 13.8886 47.2744 13.8792C47.2732 13.8489 47.2607 13.8202 47.2395 13.7992C47.2183 13.7782 47.19 13.7665 47.1606 13.7665C46.5276 13.7665 45.8582 13.7149 45.2115 13.7665C43.9683 13.6867 42.6977 13.7665 41.4591 13.7665C40.0656 13.7665 38.6493 13.682 37.2558 13.7947C37.2368 13.7871 37.2157 13.7871 37.1966 13.7947C36.386 13.9543 36.2266 15.0622 36.1765 15.7523C36.1265 16.5315 36.0536 17.5549 36.9644 17.799C36.982 17.8059 37.0014 17.8059 37.019 17.799C37.0254 17.8146 37.0362 17.8279 37.05 17.8371C37.0638 17.8463 37.08 17.851 37.0964 17.8506C38.6265 17.9821 40.2022 17.8506 41.7369 17.8788H43.9683C44.6651 17.9085 45.3631 17.896 46.0585 17.8413H46.3409C46.6598 17.8823 46.9836 17.8486 47.2881 17.7427C47.2881 17.7676 47.2977 17.7915 47.3148 17.8091C47.3318 17.8267 47.355 17.8366 47.3792 17.8366C47.4033 17.8366 47.4265 17.8267 47.4436 17.8091C47.4606 17.7915 47.4702 17.7676 47.4702 17.7427C47.5015 17.5437 47.5015 17.3408 47.4702 17.1418ZM46.3591 16.0574C45.2616 15.9682 44.1504 16.0058 43.0529 16.0058C41.878 16.0058 40.7031 16.0058 39.5328 16.0058C39.5127 16.0105 39.4947 16.0221 39.4818 16.0387C39.4689 16.0554 39.4619 16.076 39.4619 16.0973C39.4619 16.1186 39.4689 16.1392 39.4818 16.1558C39.4947 16.1725 39.5127 16.1841 39.5328 16.1888C40.6439 16.1888 41.7551 16.1888 42.8662 16.1888C43.9774 16.1888 45.2024 16.2358 46.3591 16.1372C46.3676 16.2582 46.389 16.3778 46.4228 16.494C45.3523 16.4212 44.2783 16.4212 43.2078 16.494C43.1932 16.4979 43.1803 16.5068 43.1711 16.5191C43.1619 16.5314 43.157 16.5465 43.157 16.562C43.157 16.5776 43.1619 16.5927 43.1711 16.605C43.1803 16.6173 43.1932 16.6261 43.2078 16.6301C44.2963 16.7099 45.389 16.7099 46.4775 16.6301C46.513 16.7171 46.5657 16.7954 46.6323 16.8601C46.1132 16.8601 45.5713 16.9024 45.084 16.9024H42.6613C41.0219 16.9024 39.3597 16.8273 37.7203 16.9024C37.7408 16.535 37.7408 16.1666 37.7203 15.7992C37.7203 15.4096 37.7203 15.0152 37.7203 14.6256C37.7977 14.6184 37.8702 14.5836 37.9252 14.527C39.428 14.6491 40.9399 14.6068 42.4518 14.6068C43.818 14.6068 45.2661 14.696 46.6642 14.6068C46.4664 15.0634 46.3625 15.5573 46.3591 16.0574Z" fill="#5D4D35"/>
<path d="M47.4771 8.4393C47.476 8.41436 47.4665 8.39076 47.4505 8.37311C47.4345 8.35545 47.4131 8.34499 47.3906 8.34377C47.3926 8.33518 47.393 8.32622 47.3918 8.31745C47.3905 8.30868 47.3877 8.30027 47.3834 8.29274C47.3792 8.28521 47.3736 8.27872 47.367 8.27367C47.3604 8.26861 47.3529 8.26509 47.345 8.26332C47.1851 8.22071 47.0221 8.19379 46.8578 8.18288C46.8624 8.16995 46.8624 8.15559 46.8578 8.14266C46.7132 7.76834 46.6386 7.36557 46.6386 6.95859C46.6386 6.55161 46.7132 6.14884 46.8578 5.77452L47.2585 5.74435C47.2721 5.74374 47.2854 5.74008 47.2976 5.7336C47.3099 5.72712 47.3208 5.71796 47.3298 5.70667C47.3387 5.69539 47.3455 5.68221 47.3497 5.66794C47.3539 5.65368 47.3554 5.63862 47.3541 5.62369C47.3679 5.53213 47.3679 5.4387 47.3541 5.34715C47.3584 5.22737 47.3493 5.10746 47.3268 4.99017C47.3268 4.96 47.2995 4.94492 47.2722 4.93487C47.271 4.90241 47.2585 4.87171 47.2373 4.84922C47.216 4.82672 47.1878 4.81417 47.1583 4.8142C46.5255 4.8142 45.8562 4.75889 45.2097 4.8142C43.9667 4.72872 42.6964 4.8142 41.458 4.8142C40.0648 4.8142 38.6488 4.72369 37.2556 4.84436C37.2366 4.83622 37.2154 4.83622 37.1964 4.84436C36.386 5.01531 36.2266 6.20189 36.1765 6.94099C36.1265 7.77562 36.0536 8.8717 36.9642 9.13315C36.9818 9.14048 37.0012 9.14048 37.0188 9.13315C37.0255 9.15008 37.0362 9.16467 37.0499 9.17531C37.0635 9.18595 37.0796 9.19224 37.0962 9.19348C38.626 9.32924 40.2014 9.19348 41.7357 9.19348H43.9667C44.6634 9.22532 45.3612 9.21189 46.0565 9.15326H46.3388C46.6577 9.1972 46.9814 9.16111 47.2858 9.04768C47.2858 9.07435 47.2954 9.09992 47.3125 9.11878C47.3296 9.13764 47.3527 9.14823 47.3769 9.14823C47.401 9.14823 47.4242 9.13764 47.4413 9.11878C47.4584 9.09992 47.468 9.07435 47.468 9.04768C47.4989 8.84657 47.502 8.64143 47.4771 8.4393ZM46.3661 7.27786C45.2689 7.18233 44.1579 7.22255 43.0607 7.22255C41.886 7.22255 40.7113 7.22255 39.5412 7.22255C39.5211 7.22762 39.5031 7.24007 39.4902 7.25789C39.4774 7.2757 39.4704 7.29781 39.4704 7.3206C39.4704 7.34338 39.4774 7.36549 39.4902 7.38331C39.5031 7.40112 39.5211 7.41358 39.5412 7.41864C40.6521 7.44378 41.7631 7.41864 42.874 7.41864C43.9849 7.41864 45.2097 7.46892 46.3661 7.36333C46.3747 7.49289 46.3961 7.62103 46.4299 7.74545C45.3596 7.66752 44.2858 7.66752 43.2155 7.74545C43.2009 7.74971 43.188 7.75917 43.1788 7.77236C43.1696 7.78555 43.1647 7.80172 43.1647 7.81836C43.1647 7.835 43.1696 7.85117 43.1788 7.86436C43.188 7.87754 43.2009 7.887 43.2155 7.89126C44.3038 7.97673 45.3962 7.97673 46.4845 7.89126C46.52 7.98441 46.5727 8.06833 46.6393 8.13763C46.1203 8.13763 45.5785 8.18288 45.0913 8.18288H42.6691C41.03 8.18288 39.3682 8.10243 37.7291 8.18288C37.7496 7.78768 37.7496 7.3915 37.7291 6.9963C37.7291 6.57898 37.7291 6.15664 37.7291 5.73933C37.8065 5.73165 37.879 5.6943 37.934 5.63374C39.4365 5.76949 40.9481 5.71921 42.4597 5.71921C43.8256 5.71921 45.2734 5.81474 46.6712 5.71921C46.4734 6.21003 46.3696 6.74066 46.3661 7.27786Z" fill="#5D4D35"/>
<path d="M46.2765 12.7817C46.2743 12.762 46.2641 12.7436 46.2474 12.7297C46.2308 12.7157 46.2089 12.7071 46.1855 12.7053C46.1876 12.6984 46.188 12.6912 46.1868 12.6842C46.1855 12.6772 46.1825 12.6705 46.178 12.6644C46.1735 12.6584 46.1676 12.6532 46.1607 12.6492C46.1537 12.6451 46.1459 12.6423 46.1376 12.6409C45.9695 12.6054 45.798 12.5826 45.6251 12.5725C45.6292 12.5634 45.6292 12.5534 45.6251 12.5444C45.473 12.2449 45.3945 11.9226 45.3945 11.597C45.3945 11.2714 45.473 10.9491 45.6251 10.6496L46.0466 10.6255C46.0609 10.625 46.0749 10.6221 46.0878 10.6169C46.1006 10.6117 46.1121 10.6044 46.1215 10.5953C46.1309 10.5863 46.1381 10.5758 46.1425 10.5643C46.1469 10.5529 46.1485 10.5409 46.1472 10.5289C46.1616 10.4557 46.1616 10.3809 46.1472 10.3077C46.1495 10.2119 46.1399 10.1162 46.1184 10.0221C46.1134 10.0116 46.1056 10.0021 46.0956 9.99449C46.0857 9.98684 46.0738 9.98114 46.061 9.9778C46.0597 9.95183 46.0466 9.92727 46.0242 9.90927C46.0019 9.89127 45.9722 9.88123 45.9412 9.88125C45.2755 9.88125 44.5714 9.837 43.8913 9.88125C42.5838 9.81287 41.2476 9.88125 39.9448 9.88125C38.4793 9.88125 36.9849 9.80884 35.5242 9.90539C35.5041 9.89888 35.4819 9.89888 35.4619 9.90539C34.6094 10.0422 34.4417 10.9916 34.3891 11.5829C34.3316 12.2507 34.2597 13.1277 35.2176 13.3328C35.2265 13.3367 35.2364 13.3387 35.2464 13.3387C35.2564 13.3387 35.2662 13.3367 35.2751 13.3328C35.2818 13.3462 35.2932 13.3576 35.3077 13.3655C35.3222 13.3734 35.3392 13.3774 35.3565 13.3771C36.9658 13.4897 38.6229 13.3972 40.237 13.3972H42.5934C43.3279 13.4227 44.0635 13.412 44.7965 13.365H45.0935C45.4289 13.3979 45.7689 13.3691 46.0897 13.2805C46.0897 13.3019 46.0998 13.3223 46.1177 13.3374C46.1357 13.3525 46.1601 13.361 46.1855 13.361C46.2109 13.361 46.2353 13.3525 46.2532 13.3374C46.2712 13.3223 46.2813 13.3019 46.2813 13.2805C46.3076 13.1149 46.306 12.947 46.2765 12.7817ZM45.1031 11.8524C43.9488 11.776 42.785 11.8082 41.6259 11.8082C40.4669 11.8082 39.1594 11.8082 37.9285 11.8082C37.9073 11.8122 37.8884 11.8222 37.8749 11.8365C37.8613 11.8507 37.854 11.8684 37.854 11.8866C37.854 11.9049 37.8613 11.9225 37.8749 11.9368C37.8884 11.9511 37.9073 11.961 37.9285 11.9651C39.0971 11.9852 40.2657 11.9651 41.4343 11.9651C42.603 11.9651 43.8913 12.0053 45.1079 11.9208C45.1173 12.0244 45.1397 12.1269 45.1749 12.2266C44.049 12.1642 42.9195 12.1642 41.7936 12.2266C41.7782 12.23 41.7647 12.2375 41.755 12.2481C41.7453 12.2586 41.7401 12.2716 41.7401 12.2849C41.7401 12.2982 41.7453 12.3111 41.755 12.3217C41.7647 12.3322 41.7782 12.3398 41.7936 12.3432C42.9384 12.4116 44.0876 12.4116 45.2324 12.3432C45.2709 12.4172 45.3262 12.4842 45.3952 12.5403C44.8492 12.5403 44.2793 12.5725 43.7668 12.5725H41.2188C39.4946 12.5725 37.7417 12.5082 36.0223 12.5725C36.0438 12.2577 36.0438 11.942 36.0223 11.6272C36.0343 11.2917 36.0247 10.956 35.9935 10.6215C36.0718 10.6334 36.1525 10.6235 36.2234 10.5933C37.8039 10.6979 39.394 10.6617 40.9793 10.6617C42.4449 10.6617 43.944 10.7381 45.4144 10.6617C45.22 11.038 45.1143 11.4423 45.1031 11.8524Z" fill="#5D4D35"/>
<path fill-rule="evenodd" clip-rule="evenodd" d="M33.9364 42.4512C37.7687 39.2189 42.6255 37.446 47.6441 37.4475V37.4384C52.4346 37.4365 57.0864 39.0431 60.8503 41.9993C64.6141 44.9556 67.2709 49.0895 68.3929 53.7353C69.5148 58.381 69.0366 63.2683 67.0352 67.61C65.0338 71.9516 61.6257 75.495 57.3598 77.6694C53.0938 79.8437 48.2184 80.5226 43.5187 79.5966C38.8189 78.6706 34.5684 76.1937 31.4516 72.5647C28.3348 68.9357 26.5332 64.3659 26.3369 59.5912C26.1406 54.8165 27.5611 50.1149 30.3695 46.2435L25.6964 41.7396C23.5344 43.6783 20.8492 44.9411 17.9742 45.3713C15.0991 45.8015 12.1607 45.3802 9.52355 44.1595C6.8864 42.9389 4.66656 40.9728 3.13948 38.5051C1.6124 36.0374 0.845286 33.1767 0.933324 30.278C1.02136 27.3793 1.96068 24.5702 3.63472 22.1992C5.30876 19.8283 7.64385 17.9998 10.3502 16.9407C13.0566 15.8815 16.0152 15.6384 18.8589 16.2414C21.7026 16.8444 24.3061 18.2671 26.3466 20.3328L31.1958 16.7297C29.8629 14.2989 29.4713 11.4645 30.0954 8.76466C30.7195 6.06486 32.3158 3.68768 34.5811 2.08455C36.8465 0.481428 39.6232 -0.235999 42.3839 0.0685083C45.1446 0.373016 47.6971 1.67825 49.5566 3.73636C51.4161 5.79446 52.4532 8.4621 52.4709 11.2327C52.4886 14.0033 51.4857 16.6839 49.6526 18.7655C47.8195 20.847 45.2839 22.1846 42.5273 22.5242C39.7707 22.8638 36.9851 22.1817 34.6994 20.6075L29.2994 24.6295C30.2448 26.6815 30.7031 28.9233 30.6389 31.1807C30.5747 33.4381 29.9897 35.6504 28.9292 37.6456L33.9364 42.4512ZM47.6429 78.209C58.2765 78.209 66.8967 69.5888 66.8967 58.9552C66.8967 48.3217 58.2765 39.7015 47.6429 39.7015C37.0094 39.7015 28.3892 48.3217 28.3892 58.9552C28.3892 69.5888 37.0094 78.209 47.6429 78.209ZM28.6877 31.194C28.6877 38.2006 23.0077 43.8806 16.0011 43.8806C8.99454 43.8806 3.31457 38.2006 3.31457 31.194C3.31457 24.1874 8.99454 18.5075 16.0011 18.5075C23.0077 18.5075 28.6877 24.1874 28.6877 31.194ZM41.2252 20.597C46.3359 20.597 50.4789 16.454 50.4789 11.3433C50.4789 6.23259 46.3359 2.08955 41.2252 2.08955C36.1145 2.08955 31.9714 6.23259 31.9714 11.3433C31.9714 16.454 36.1145 20.597 41.2252 20.597Z" fill="#5D4D35"/>
<path d="M75.5537 56.6242V9.851H98.0828C104.808 9.851 109.808 11.2786 113.082 14.134C116.356 16.9893 118.003 20.8198 118.021 25.6255C118.053 27.9481 117.668 30.2576 116.884 32.4443C116.151 34.4418 114.935 36.2268 113.344 37.6398C111.59 39.1542 109.53 40.2725 107.304 40.9185C104.474 41.732 101.537 42.1154 98.5918 42.0557H90.8788V56.6242H75.5537ZM97.262 31.1649C98.8334 31.2354 100.388 30.8155 101.71 29.9635C102.856 29.1625 103.431 27.7456 103.434 25.7126C103.481 24.777 103.194 23.8552 102.623 23.1126C102.069 22.4587 101.368 21.9462 100.577 21.6177C99.7263 21.2652 98.8291 21.0366 97.9131 20.939C97.0289 20.8331 96.1394 20.778 95.2489 20.7739H90.9017V31.1649H97.262Z" fill="#5D4D35"/>
<path d="M123.664 56.6243V9.85105H161.78V20.774H138.989V27.4644H158.276V38.3735H138.989V45.7105H162.688V56.6243H123.664Z" fill="#5D4D35"/>
<path d="M167.622 9.85105H210.479V22.1405H196.722V56.6243H181.388V22.1405H167.631L167.622 9.85105Z" fill="#5D4D35"/>
<path d="M78.337 70.415V64.0253H76.0234V62.7243H82.2196V64.0253H79.9113V70.415H78.337Z" fill="#5D4D35"/>
<path d="M85.6927 68.6419L87.1819 68.8884C86.9905 69.427 86.6873 69.838 86.2724 70.1213C85.8611 70.401 85.3452 70.5409 84.7247 70.5409C83.7425 70.5409 83.0156 70.2244 82.5441 69.5914C82.1718 69.0843 81.9856 68.4443 81.9856 67.6713C81.9856 66.748 82.2303 66.0258 82.7196 65.5047C83.2089 64.9801 83.8276 64.7178 84.5758 64.7178C85.4161 64.7178 86.0792 64.9923 86.565 65.5414C87.0507 66.087 87.283 66.9246 87.2617 68.0543H83.5174C83.528 68.4915 83.6486 68.8325 83.879 69.0773C84.1095 69.3186 84.3967 69.4393 84.7407 69.4393C84.9747 69.4393 85.1715 69.3763 85.331 69.2504C85.4906 69.1245 85.6112 68.9217 85.6927 68.6419ZM85.7778 67.152C85.7672 66.7253 85.6555 66.4018 85.4427 66.1814C85.23 65.9576 84.9711 65.8457 84.6662 65.8457C84.34 65.8457 84.0705 65.9629 83.8578 66.1972C83.645 66.4315 83.5404 66.7498 83.544 67.152H85.7778Z" fill="#5D4D35"/>
<path d="M93.4101 66.491L91.9368 66.7533C91.8872 66.463 91.7737 66.2444 91.5964 66.0975C91.4227 65.9506 91.1957 65.8772 90.9156 65.8772C90.5433 65.8772 90.2455 66.0048 90.0221 66.2601C89.8023 66.512 89.6923 66.9351 89.6923 67.5297C89.6923 68.1907 89.804 68.6576 90.0274 68.9304C90.2543 69.2032 90.5575 69.3396 90.9369 69.3396C91.2206 69.3396 91.4528 69.2609 91.6336 69.1035C91.8145 68.9426 91.9421 68.6681 92.0166 68.2799L93.4845 68.5264C93.3321 69.1909 93.0395 69.6928 92.607 70.0321C92.1744 70.3713 91.5946 70.5409 90.8678 70.5409C90.0416 70.5409 89.3821 70.2839 88.8892 69.7698C88.3999 69.2557 88.1552 68.5439 88.1552 67.6346C88.1552 66.7148 88.4017 65.9996 88.8945 65.489C89.3874 64.9749 90.054 64.7178 90.8943 64.7178C91.5822 64.7178 92.1283 64.8647 92.5325 65.1585C92.9403 65.4488 93.2328 65.8929 93.4101 66.491Z" fill="#5D4D35"/>
<path d="M99.6861 70.415H98.1915V67.5717C98.1915 66.9701 98.1596 66.5819 98.0958 66.407C98.032 66.2287 97.9274 66.0905 97.782 65.9926C97.6402 65.8947 97.4682 65.8457 97.2661 65.8457C97.0072 65.8457 96.775 65.9157 96.5693 66.0555C96.3637 66.1954 96.2219 66.3808 96.1439 66.6116C96.0694 66.8425 96.0322 67.2691 96.0322 67.8917V70.415H94.5376V64.8437H95.9258V65.6621C96.4187 65.0326 97.0392 64.7178 97.7873 64.7178C98.1171 64.7178 98.4185 64.7773 98.6915 64.8962C98.9645 65.0116 99.1702 65.1602 99.3085 65.3421C99.4503 65.5239 99.5478 65.7303 99.601 65.9611C99.6577 66.1919 99.6861 66.5224 99.6861 66.9526V70.415Z" fill="#5D4D35"/>
<path d="M100.862 67.5507C100.862 67.061 100.984 66.5871 101.228 66.129C101.473 65.6708 101.819 65.3211 102.266 65.0798C102.716 64.8385 103.218 64.7178 103.771 64.7178C104.625 64.7178 105.326 64.9923 105.872 65.5414C106.418 66.087 106.691 66.7778 106.691 67.6136C106.691 68.4565 106.414 69.156 105.861 69.7121C105.311 70.2647 104.618 70.5409 103.781 70.5409C103.264 70.5409 102.769 70.4255 102.298 70.1947C101.829 69.9639 101.473 69.6264 101.228 69.1822C100.984 68.7345 100.862 68.1907 100.862 67.5507ZM102.393 67.6294C102.393 68.182 102.526 68.6051 102.792 68.8989C103.058 69.1927 103.386 69.3396 103.776 69.3396C104.166 69.3396 104.492 69.1927 104.755 68.8989C105.021 68.6051 105.154 68.1785 105.154 67.6189C105.154 67.0733 105.021 66.6536 104.755 66.3598C104.492 66.066 104.166 65.9191 103.776 65.9191C103.386 65.9191 103.058 66.066 102.792 66.3598C102.526 66.6536 102.393 67.0768 102.393 67.6294Z" fill="#5D4D35"/>
<path d="M107.866 70.415V62.7243H109.361V70.415H107.866Z" fill="#5D4D35"/>
<path d="M110.552 67.5507C110.552 67.061 110.674 66.5871 110.919 66.129C111.164 65.6708 111.509 65.3211 111.956 65.0798C112.407 64.8385 112.908 64.7178 113.461 64.7178C114.316 64.7178 115.016 64.9923 115.562 65.5414C116.108 66.087 116.381 66.7778 116.381 67.6136C116.381 68.4565 116.105 69.156 115.552 69.7121C115.002 70.2647 114.309 70.5409 113.472 70.5409C112.954 70.5409 112.46 70.4255 111.988 70.1947C111.52 69.9639 111.164 69.6264 110.919 69.1822C110.674 68.7345 110.552 68.1907 110.552 67.5507ZM112.084 67.6294C112.084 68.182 112.217 68.6051 112.483 68.8989C112.749 69.1927 113.077 69.3396 113.467 69.3396C113.857 69.3396 114.183 69.1927 114.445 68.8989C114.711 68.6051 114.844 68.1785 114.844 67.6189C114.844 67.0733 114.711 66.6536 114.445 66.3598C114.183 66.066 113.857 65.9191 113.467 65.9191C113.077 65.9191 112.749 66.066 112.483 66.3598C112.217 66.6536 112.084 67.0768 112.084 67.6294Z" fill="#5D4D35"/>
<path d="M117.418 70.7823L119.126 70.9869C119.154 71.1827 119.22 71.3174 119.323 71.3908C119.464 71.4957 119.688 71.5482 119.993 71.5482C120.383 71.5482 120.675 71.4905 120.87 71.3751C121.001 71.2981 121.101 71.174 121.168 71.0026C121.214 70.8802 121.237 70.6546 121.237 70.3258V69.5127C120.79 70.1143 120.227 70.415 119.546 70.415C118.787 70.415 118.186 70.0985 117.743 69.4655C117.395 68.9654 117.222 68.3428 117.222 67.5979C117.222 66.6641 117.449 65.9506 117.902 65.4575C118.36 64.9644 118.927 64.7178 119.604 64.7178C120.303 64.7178 120.879 65.0203 121.333 65.6254V64.8437H122.732V69.8432C122.732 70.5007 122.677 70.9921 122.567 71.3174C122.457 71.6426 122.303 71.8979 122.104 72.0833C121.906 72.2687 121.64 72.4138 121.306 72.5187C120.977 72.6236 120.558 72.6761 120.051 72.6761C119.094 72.6761 118.415 72.5135 118.014 72.1882C117.613 71.8665 117.413 71.4573 117.413 70.9606C117.413 70.9117 117.415 70.8522 117.418 70.7823ZM118.753 67.514C118.753 68.105 118.869 68.5387 119.099 68.815C119.333 69.0878 119.62 69.2242 119.961 69.2242C120.326 69.2242 120.634 69.0843 120.886 68.8045C121.138 68.5212 121.264 68.1033 121.264 67.5507C121.264 66.9736 121.143 66.5452 120.902 66.2654C120.661 65.9856 120.356 65.8457 119.987 65.8457C119.629 65.8457 119.333 65.9838 119.099 66.2601C118.869 66.5329 118.753 66.9509 118.753 67.514Z" fill="#5D4D35"/>
<path d="M124.216 64.0883V62.7243H125.71V64.0883H124.216ZM124.216 70.415V64.8437H125.71V70.415H124.216Z" fill="#5D4D35"/>
<path d="M128.364 66.5434L127.008 66.3021C127.16 65.7635 127.423 65.3648 127.795 65.106C128.167 64.8472 128.721 64.7178 129.455 64.7178C130.121 64.7178 130.618 64.7965 130.944 64.9539C131.27 65.1077 131.499 65.3054 131.63 65.5467C131.765 65.7845 131.832 66.2234 131.832 66.8634L131.816 68.5842C131.816 69.0738 131.839 69.4358 131.885 69.6701C131.935 69.9009 132.025 70.1492 132.156 70.415H130.678C130.639 70.3171 130.591 70.172 130.534 69.9796C130.509 69.8922 130.492 69.8345 130.481 69.8065C130.226 70.0513 129.953 70.2349 129.662 70.3573C129.371 70.4797 129.061 70.5409 128.731 70.5409C128.15 70.5409 127.691 70.3853 127.354 70.074C127.02 69.7628 126.854 69.3693 126.854 68.8937C126.854 68.5789 126.93 68.2991 127.082 68.0543C127.235 67.806 127.448 67.6171 127.721 67.4877C127.997 67.3548 128.394 67.2394 128.912 67.1415C129.611 67.0121 130.095 66.8914 130.364 66.7795V66.6326C130.364 66.3493 130.293 66.1482 130.151 66.0293C130.009 65.9069 129.742 65.8457 129.348 65.8457C129.082 65.8457 128.875 65.8982 128.726 66.0031C128.577 66.1045 128.456 66.2846 128.364 66.5434ZM130.364 67.7395C130.173 67.8025 129.869 67.8777 129.455 67.9651C129.04 68.0526 128.768 68.1382 128.641 68.2222C128.446 68.3586 128.348 68.5317 128.348 68.7415C128.348 68.9479 128.426 69.1263 128.582 69.2766C128.738 69.427 128.937 69.5022 129.178 69.5022C129.447 69.5022 129.705 69.4148 129.949 69.2399C130.13 69.107 130.249 68.9444 130.306 68.752C130.345 68.6261 130.364 68.3866 130.364 68.0333V67.7395Z" fill="#5D4D35"/>
<path d="M141.523 70.415H140.134V69.5966C139.904 69.9149 139.631 70.1527 139.315 70.3101C139.003 70.464 138.688 70.5409 138.369 70.5409C137.72 70.5409 137.163 70.2839 136.699 69.7698C136.238 69.2522 136.007 68.5317 136.007 67.6084C136.007 66.6641 136.232 65.9471 136.683 65.4575C137.133 64.9644 137.702 64.7178 138.39 64.7178C139.021 64.7178 139.567 64.9766 140.028 65.4942V62.7243H141.523V70.415ZM137.534 67.5087C137.534 68.1033 137.617 68.5334 137.784 68.7992C138.025 69.184 138.362 69.3763 138.794 69.3763C139.138 69.3763 139.431 69.2329 139.672 68.9461C139.913 68.6559 140.033 68.2239 140.033 67.6504C140.033 67.0103 139.916 66.5504 139.682 66.2706C139.448 65.9873 139.149 65.8457 138.783 65.8457C138.429 65.8457 138.131 65.9856 137.89 66.2654C137.652 66.5417 137.534 66.9561 137.534 67.5087Z" fill="#5D4D35"/>
<path d="M144.118 66.5434L142.762 66.3021C142.914 65.7635 143.177 65.3648 143.549 65.106C143.921 64.8472 144.474 64.7178 145.208 64.7178C145.875 64.7178 146.371 64.7965 146.698 64.9539C147.024 65.1077 147.253 65.3054 147.384 65.5467C147.518 65.7845 147.586 66.2234 147.586 66.8634L147.57 68.5842C147.57 69.0738 147.593 69.4358 147.639 69.6701C147.689 69.9009 147.779 70.1492 147.91 70.415H146.432C146.393 70.3171 146.345 70.172 146.288 69.9796C146.263 69.8922 146.246 69.8345 146.235 69.8065C145.98 70.0513 145.707 70.2349 145.416 70.3573C145.125 70.4797 144.815 70.5409 144.485 70.5409C143.904 70.5409 143.444 70.3853 143.108 70.074C142.774 69.7628 142.608 69.3693 142.608 68.8937C142.608 68.5789 142.684 68.2991 142.836 68.0543C142.989 67.806 143.202 67.6171 143.475 67.4877C143.751 67.3548 144.148 67.2394 144.666 67.1415C145.364 67.0121 145.848 66.8914 146.118 66.7795V66.6326C146.118 66.3493 146.047 66.1482 145.905 66.0293C145.763 65.9069 145.496 65.8457 145.102 65.8457C144.836 65.8457 144.629 65.8982 144.48 66.0031C144.331 66.1045 144.21 66.2846 144.118 66.5434ZM146.118 67.7395C145.926 67.8025 145.623 67.8777 145.208 67.9651C144.794 68.0526 144.522 68.1382 144.395 68.2222C144.2 68.3586 144.102 68.5317 144.102 68.7415C144.102 68.9479 144.18 69.1263 144.336 69.2766C144.492 69.427 144.691 69.5022 144.932 69.5022C145.201 69.5022 145.458 69.4148 145.703 69.2399C145.884 69.107 146.003 68.9444 146.059 68.752C146.098 68.6261 146.118 68.3866 146.118 68.0333V67.7395Z" fill="#5D4D35"/>
<path d="M152.059 70.415V62.7243H153.633V70.415H152.059Z" fill="#5D4D35"/>
<path d="M160.266 70.415H158.771V67.5717C158.771 66.9701 158.739 66.5819 158.675 66.407C158.611 66.2287 158.507 66.0905 158.361 65.9926C158.22 65.8947 158.048 65.8457 157.846 65.8457C157.587 65.8457 157.354 65.9157 157.149 66.0555C156.943 66.1954 156.801 66.3808 156.723 66.6116C156.649 66.8425 156.612 67.2691 156.612 67.8917V70.415H155.117V64.8437H156.505V65.6621C156.998 65.0326 157.619 64.7178 158.367 64.7178C158.697 64.7178 158.998 64.7773 159.271 64.8962C159.544 65.0116 159.75 65.1602 159.888 65.3421C160.03 65.5239 160.127 65.7303 160.18 65.9611C160.237 66.1919 160.266 66.5224 160.266 66.9526V70.415Z" fill="#5D4D35"/>
<path d="M161.132 64.8437H161.962V64.424C161.962 63.9554 162.012 63.6056 162.111 63.3748C162.214 63.144 162.4 62.9569 162.67 62.8135C162.943 62.6666 163.287 62.5931 163.701 62.5931C164.127 62.5931 164.544 62.6561 164.951 62.782L164.749 63.8102C164.512 63.7543 164.283 63.7263 164.063 63.7263C163.847 63.7263 163.691 63.777 163.595 63.8784C163.503 63.9764 163.457 64.167 163.457 64.4502V64.8437H164.574V66.0031H163.457V70.415H161.962V66.0031H161.132V64.8437Z" fill="#5D4D35"/>
<path d="M165.068 67.5507C165.068 67.061 165.191 66.5871 165.435 66.129C165.68 65.6708 166.026 65.3211 166.472 65.0798C166.923 64.8385 167.424 64.7178 167.978 64.7178C168.832 64.7178 169.532 64.9923 170.078 65.5414C170.625 66.087 170.898 66.7778 170.898 67.6136C170.898 68.4565 170.621 69.156 170.068 69.7121C169.518 70.2647 168.825 70.5409 167.988 70.5409C167.471 70.5409 166.976 70.4255 166.504 70.1947C166.036 69.9639 165.68 69.6264 165.435 69.1822C165.191 68.7345 165.068 68.1907 165.068 67.5507ZM166.6 67.6294C166.6 68.182 166.733 68.6051 166.999 68.8989C167.265 69.1927 167.593 69.3396 167.983 69.3396C168.373 69.3396 168.699 69.1927 168.962 68.8989C169.227 68.6051 169.36 68.1785 169.36 67.6189C169.36 67.0733 169.227 66.6536 168.962 66.3598C168.699 66.066 168.373 65.9191 167.983 65.9191C167.593 65.9191 167.265 66.066 166.999 66.3598C166.733 66.6536 166.6 67.0768 166.6 67.6294Z" fill="#5D4D35"/>
<path d="M173.504 70.415H172.009V64.8437H173.397V65.6359C173.635 65.2616 173.848 65.0151 174.036 64.8962C174.227 64.7773 174.443 64.7178 174.684 64.7178C175.025 64.7178 175.353 64.8105 175.668 64.9958L175.206 66.2811C174.954 66.1202 174.72 66.0398 174.504 66.0398C174.294 66.0398 174.117 66.0975 173.972 66.2129C173.826 66.3248 173.711 66.5294 173.626 66.8267C173.544 67.124 173.504 67.7465 173.504 68.6943V70.415Z" fill="#5D4D35"/>
<path d="M176.206 64.8437H177.583V65.6044C178.076 65.0133 178.663 64.7178 179.344 64.7178C179.705 64.7178 180.019 64.7912 180.285 64.9381C180.551 65.085 180.769 65.3071 180.939 65.6044C181.187 65.3071 181.455 65.085 181.742 64.9381C182.029 64.7912 182.336 64.7178 182.662 64.7178C183.077 64.7178 183.428 64.8017 183.715 64.9696C184.003 65.134 184.217 65.3771 184.359 65.6988C184.462 65.9366 184.513 66.3213 184.513 66.853V70.415H183.019V67.2307C183.019 66.6781 182.967 66.3213 182.864 66.1605C182.726 65.9506 182.513 65.8457 182.226 65.8457C182.017 65.8457 181.82 65.9087 181.636 66.0346C181.452 66.1605 181.319 66.3458 181.237 66.5906C181.155 66.832 181.115 67.2149 181.115 67.7395V70.415H179.62V67.3618C179.62 66.8197 179.594 66.47 179.54 66.3126C179.487 66.1552 179.404 66.0381 179.29 65.9611C179.18 65.8842 179.03 65.8457 178.838 65.8457C178.608 65.8457 178.4 65.9069 178.216 66.0293C178.032 66.1517 177.899 66.3283 177.817 66.5592C177.739 66.79 177.7 67.173 177.7 67.7081V70.415H176.206V64.8437Z" fill="#5D4D35"/>
<path d="M187.125 66.5434L185.768 66.3021C185.921 65.7635 186.183 65.3648 186.556 65.106C186.928 64.8472 187.481 64.7178 188.215 64.7178C188.882 64.7178 189.378 64.7965 189.704 64.9539C190.031 65.1077 190.259 65.3054 190.39 65.5467C190.525 65.7845 190.593 66.2234 190.593 66.8634L190.577 68.5842C190.577 69.0738 190.6 69.4358 190.646 69.6701C190.695 69.9009 190.786 70.1492 190.917 70.415H189.438C189.399 70.3171 189.351 70.172 189.295 69.9796C189.27 69.8922 189.252 69.8345 189.242 69.8065C188.986 70.0513 188.713 70.2349 188.422 70.3573C188.132 70.4797 187.821 70.5409 187.492 70.5409C186.91 70.5409 186.451 70.3853 186.114 70.074C185.781 69.7628 185.614 69.3693 185.614 68.8937C185.614 68.5789 185.69 68.2991 185.843 68.0543C185.995 67.806 186.208 67.6171 186.481 67.4877C186.758 67.3548 187.155 67.2394 187.673 67.1415C188.371 67.0121 188.855 66.8914 189.125 66.7795V66.6326C189.125 66.3493 189.054 66.1482 188.912 66.0293C188.77 65.9069 188.502 65.8457 188.109 65.8457C187.843 65.8457 187.635 65.8982 187.486 66.0031C187.337 66.1045 187.217 66.2846 187.125 66.5434ZM189.125 67.7395C188.933 67.8025 188.63 67.8777 188.215 67.9651C187.8 68.0526 187.529 68.1382 187.401 68.2222C187.206 68.3586 187.109 68.5317 187.109 68.7415C187.109 68.9479 187.187 69.1263 187.343 69.2766C187.499 69.427 187.697 69.5022 187.938 69.5022C188.208 69.5022 188.465 69.4148 188.71 69.2399C188.891 69.107 189.009 68.9444 189.066 68.752C189.105 68.6261 189.125 68.3866 189.125 68.0333V67.7395Z" fill="#5D4D35"/>
<path d="M196.996 66.491L195.523 66.7533C195.473 66.463 195.36 66.2444 195.183 66.0975C195.009 65.9506 194.782 65.8772 194.502 65.8772C194.129 65.8772 193.832 66.0048 193.608 66.2601C193.388 66.512 193.278 66.9351 193.278 67.5297C193.278 68.1907 193.39 68.6576 193.613 68.9304C193.84 69.2032 194.144 69.3396 194.523 69.3396C194.807 69.3396 195.039 69.2609 195.22 69.1035C195.401 68.9426 195.528 68.6681 195.603 68.2799L197.071 68.5264C196.918 69.1909 196.626 69.6928 196.193 70.0321C195.76 70.3713 195.181 70.5409 194.454 70.5409C193.628 70.5409 192.968 70.2839 192.475 69.7698C191.986 69.2557 191.741 68.5439 191.741 67.6346C191.741 66.7148 191.988 65.9996 192.481 65.489C192.973 64.9749 193.64 64.7178 194.48 64.7178C195.168 64.7178 195.714 64.8647 196.119 65.1585C196.526 65.4488 196.819 65.8929 196.996 66.491ZM192.97 72.5292V71.9102C193.335 71.9486 193.67 71.9679 193.975 71.9679C194.291 71.9679 194.525 71.9119 194.677 71.8C194.794 71.7161 194.853 71.6076 194.853 71.4747C194.853 71.3558 194.798 71.2527 194.688 71.1652C194.578 71.0778 194.408 71.0341 194.177 71.0341C193.95 71.0341 193.718 71.069 193.481 71.139L193.619 70.6196C193.895 70.5252 194.193 70.478 194.512 70.478C194.956 70.478 195.292 70.5742 195.523 70.7665C195.753 70.9589 195.869 71.1932 195.869 71.4695C195.869 71.7773 195.741 72.0273 195.486 72.2197C195.142 72.482 194.649 72.6131 194.007 72.6131C193.55 72.6131 193.204 72.5852 192.97 72.5292Z" fill="#5D4D35"/>
<path d="M199.251 66.5434L197.895 66.3021C198.047 65.7635 198.31 65.3648 198.682 65.106C199.054 64.8472 199.608 64.7178 200.342 64.7178C201.008 64.7178 201.505 64.7965 201.831 64.9539C202.157 65.1077 202.386 65.3054 202.517 65.5467C202.652 65.7845 202.719 66.2234 202.719 66.8634L202.703 68.5842C202.703 69.0738 202.726 69.4358 202.772 69.6701C202.822 69.9009 202.912 70.1492 203.043 70.415H201.565C201.526 70.3171 201.478 70.172 201.421 69.9796C201.396 69.8922 201.379 69.8345 201.368 69.8065C201.113 70.0513 200.84 70.2349 200.549 70.3573C200.258 70.4797 199.948 70.5409 199.618 70.5409C199.037 70.5409 198.578 70.3853 198.241 70.074C197.907 69.7628 197.741 69.3693 197.741 68.8937C197.741 68.5789 197.817 68.2991 197.969 68.0543C198.122 67.806 198.335 67.6171 198.608 67.4877C198.884 67.3548 199.281 67.2394 199.799 67.1415C200.498 67.0121 200.982 66.8914 201.251 66.7795V66.6326C201.251 66.3493 201.18 66.1482 201.038 66.0293C200.896 65.9069 200.629 65.8457 200.235 65.8457C199.969 65.8457 199.762 65.8982 199.613 66.0031C199.464 66.1045 199.343 66.2846 199.251 66.5434ZM201.251 67.7395C201.06 67.8025 200.756 67.8777 200.342 67.9651C199.927 68.0526 199.655 68.1382 199.528 68.2222C199.333 68.3586 199.235 68.5317 199.235 68.7415C199.235 68.9479 199.313 69.1263 199.469 69.2766C199.625 69.427 199.824 69.5022 200.065 69.5022C200.334 69.5022 200.592 69.4148 200.836 69.2399C201.017 69.107 201.136 68.9444 201.193 68.752C201.232 68.6261 201.251 68.3866 201.251 68.0333V67.7395ZM199.241 64.0935H198.56C198.556 64.0131 198.555 63.9501 198.555 63.9047C198.555 63.5374 198.645 63.2559 198.826 63.06C199.007 62.8607 199.239 62.761 199.523 62.761C199.647 62.761 199.762 62.775 199.868 62.803C199.975 62.8275 200.168 62.9027 200.448 63.0286C200.732 63.151 200.953 63.2122 201.113 63.2122C201.226 63.2122 201.32 63.1772 201.395 63.1073C201.473 63.0373 201.522 62.9201 201.544 62.7558H202.235C202.231 63.2279 202.141 63.5654 201.964 63.7683C201.79 63.9711 201.565 64.0725 201.288 64.0725C201.168 64.0725 201.049 64.0603 200.932 64.0358C200.85 64.0148 200.647 63.9431 200.32 63.8207C199.994 63.6983 199.757 63.6371 199.608 63.6371C199.494 63.6371 199.406 63.6721 199.342 63.742C199.278 63.8085 199.244 63.9256 199.241 64.0935Z" fill="#5D4D35"/>
<path d="M203.852 67.5507C203.852 67.061 203.974 66.5871 204.219 66.129C204.464 65.6708 204.809 65.3211 205.256 65.0798C205.706 64.8385 206.208 64.7178 206.761 64.7178C207.616 64.7178 208.316 64.9923 208.862 65.5414C209.408 66.087 209.681 66.7778 209.681 67.6136C209.681 68.4565 209.405 69.156 208.851 69.7121C208.302 70.2647 207.609 70.5409 206.772 70.5409C206.254 70.5409 205.76 70.4255 205.288 70.1947C204.82 69.9639 204.464 69.6264 204.219 69.1822C203.974 68.7345 203.852 68.1907 203.852 67.5507ZM205.384 67.6294C205.384 68.182 205.517 68.6051 205.783 68.8989C206.049 69.1927 206.376 69.3396 206.767 69.3396C207.157 69.3396 207.483 69.1927 207.745 68.8989C208.011 68.6051 208.144 68.1785 208.144 67.6189C208.144 67.0733 208.011 66.6536 207.745 66.3598C207.483 66.066 207.157 65.9191 206.767 65.9191C206.376 65.9191 206.049 66.066 205.783 66.3598C205.517 66.6536 205.384 67.0768 205.384 67.6294Z" fill="#5D4D35"/>
</svg>
