<svg width="108" height="80" viewBox="0 0 108 80" fill="none" xmlns="http://www.w3.org/2000/svg">
<path d="M93.7432 34.6353V47.5862C93.7432 47.9019 93.415 48.1322 93.1088 48.0157C88.6726 46.3286 72.856 40.8541 54.3535 40.8541C35.8509 40.8541 20.0343 46.3286 15.5982 48.0157C15.2919 48.1322 14.9637 47.9019 14.9637 47.5862V34.6353C14.9637 34.4507 15.0677 34.3026 15.2222 34.2433C18.3571 33.0402 34.8611 27.0861 54.3535 27.0861C73.8458 27.0861 90.3498 33.0402 93.4847 34.2433C93.6392 34.3026 93.7432 34.4507 93.7432 34.6353Z" stroke="#5D4D35" stroke-width="0.880217"/>
<path d="M27.1119 37.1851C27.2363 37.2455 27.3208 37.3658 27.3655 37.5462L27.3719 37.572C27.4145 37.7438 27.3959 37.8897 27.3162 38.0097C27.3162 38.0097 27.313 38.015 27.3065 38.0258L27.2937 38.0289C27.2744 38.0246 27.2432 38.0278 27.2003 38.0384C27.1552 38.0405 27.1241 38.0436 27.1069 38.0479C27.0338 38.0842 26.9758 38.1259 26.9328 38.1731C26.8854 38.2395 26.8691 38.3393 26.8839 38.4723C26.89 38.6076 26.9303 38.8255 27.0048 39.1261L27.1133 39.5642C27.1814 39.8391 27.2486 40.0549 27.3148 40.2117C27.381 40.3685 27.4708 40.5286 27.5842 40.692C27.3258 41.0842 26.9699 41.4322 26.5164 41.736C26.0822 42.0441 25.5859 42.2673 25.0276 42.4057C24.2803 42.5908 23.5807 42.5636 22.9288 42.3239C22.2789 42.0929 21.7165 41.6625 21.2413 41.0326C20.8347 40.4952 20.5099 39.8099 20.267 38.9766C19.8337 38.8834 19.6064 38.7938 19.5851 38.708C19.5638 38.6221 19.7326 38.4754 20.0915 38.268C19.9408 37.4757 19.9316 36.7578 20.0639 36.1142C20.2307 35.3526 20.5551 34.7298 21.0368 34.2458C21.5358 33.7575 22.1503 33.4229 22.8804 33.2421C23.2154 33.1591 23.5256 33.1232 23.8111 33.1346C24.0965 33.1459 24.3346 33.1872 24.5255 33.2584C24.7249 33.3275 24.9039 33.4427 25.0624 33.604C25.2273 33.7546 25.358 33.8955 25.4543 34.0266C25.5506 34.1577 25.6382 34.3275 25.7172 34.5358C25.8047 34.7421 25.8623 34.901 25.89 35.0127C25.9241 35.1136 25.9625 35.25 26.005 35.4218C25.9425 35.5375 25.8232 35.6263 25.6471 35.6882C25.4774 35.7394 25.3186 35.7422 25.1706 35.6969C24.9597 34.956 24.6796 34.4692 24.3303 34.2367C23.9874 33.9934 23.5711 33.9325 23.0815 34.0538C22.6177 34.1687 22.2652 34.4201 22.024 34.8081C21.7807 35.1874 21.6498 35.6529 21.6315 36.2044C21.6111 36.7109 21.6658 37.2444 21.7955 37.8048C22.2912 37.8187 22.5508 37.8729 22.5742 37.9674C22.5976 38.0619 22.4115 38.2675 22.016 38.5843C22.1801 39.0998 22.3755 39.5573 22.6022 39.957C22.9186 40.535 23.2847 40.964 23.7005 41.2439C24.1141 41.5152 24.5443 41.5955 24.9909 41.4849C25.2916 41.4104 25.5085 41.311 25.6419 41.1868C25.7472 41.0969 25.814 40.9801 25.8422 40.8364C25.8704 40.6926 25.8441 40.4575 25.7632 40.1312L25.6324 39.6029C25.5472 39.2593 25.4651 39.0198 25.386 38.8845C25.3155 38.747 25.2169 38.662 25.0904 38.6295C24.9745 38.6035 24.7996 38.6149 24.5655 38.6638C24.5569 38.6659 24.5441 38.6691 24.5269 38.6734C24.5183 38.6755 24.5108 38.6819 24.5043 38.6926L24.4914 38.6958C24.4807 38.6894 24.4753 38.6861 24.4753 38.6861C24.351 38.6258 24.2665 38.5054 24.2218 38.325L24.2154 38.2993C24.1771 38.1447 24.1859 38.0148 24.242 37.9098C24.2463 37.8905 24.256 37.8744 24.271 37.8616L24.2679 37.8487L24.2807 37.8455C24.2979 37.8412 24.3333 37.837 24.387 37.8328C24.4471 37.8179 24.4954 37.8105 24.5319 37.8106L24.5577 37.8042C24.8605 37.7383 25.2266 37.6522 25.656 37.5458C26.1199 37.4309 26.5902 37.3052 27.0669 37.1689C27.0862 37.1732 27.0959 37.1754 27.0959 37.1754C27.0959 37.1754 27.1012 37.1786 27.1119 37.1851ZM24.4815 41.8572C24.5867 41.8403 24.6769 41.8179 24.752 41.7902C24.6769 41.8179 24.5899 41.8349 24.4912 41.8411C24.4719 41.8368 24.4268 41.8389 24.3559 41.8473C24.3559 41.8473 24.3377 41.8473 24.3012 41.8472C24.2647 41.8471 24.2368 41.8449 24.2175 41.8406C24.0523 41.8359 23.8871 41.813 23.7219 41.7719C23.5653 41.7286 23.4281 41.6715 23.3102 41.6004L23.2523 41.5874C23.2501 41.5788 23.2437 41.5713 23.233 41.5648C23.2223 41.5584 23.2126 41.5562 23.204 41.5583C23.1912 41.5433 23.159 41.5239 23.1076 41.5002C23.0969 41.4937 23.069 41.4733 23.024 41.4388C22.9811 41.413 22.9543 41.3968 22.9436 41.3904C22.7443 41.2483 22.5601 41.0751 22.391 40.8709C22.3525 40.8257 22.3139 40.7806 22.2754 40.7354C22.2754 40.7354 22.27 40.7322 22.2593 40.7257C22.2551 40.7085 22.2529 40.7 22.2529 40.7C22.2422 40.6935 22.2304 40.6827 22.2176 40.6677C22.2155 40.6591 22.208 40.6473 22.1951 40.6322C22.1909 40.615 22.1834 40.6032 22.1727 40.5968C22.147 40.5667 22.0881 40.4764 21.9962 40.326C21.8251 40.0402 21.6648 39.7061 21.5154 39.3237C21.4962 39.2829 21.4769 39.2421 21.4577 39.2013C21.4556 39.1927 21.4535 39.1841 21.4513 39.1755C21.4471 39.1583 21.4428 39.1411 21.4386 39.124C21.4343 39.1068 21.4268 39.095 21.4161 39.0885C21.4118 39.0713 21.3884 38.9951 21.3458 38.8598C21.3201 38.7932 21.2967 38.717 21.2754 38.6311C21.2349 38.5043 21.2115 38.4281 21.2051 38.4023C21.1987 38.3766 21.1848 38.339 21.1635 38.2896C21.1507 38.238 21.1422 38.2037 21.1379 38.1865C21.1294 38.1521 21.123 38.1264 21.1188 38.1092C21.1124 38.0834 21.106 38.0577 21.0996 38.0319C21.0911 37.9975 21.0847 37.9718 21.0805 37.9546C21.0783 37.946 21.0741 37.9288 21.0677 37.903C21.0592 37.8687 21.0539 37.8472 21.0517 37.8386C21.0561 37.8193 21.0551 37.7968 21.0487 37.771C21.0423 37.7452 21.037 37.7238 21.0327 37.7066C21.0073 37.567 20.9924 37.4887 20.9881 37.4715C20.9267 37.0764 20.9028 36.704 20.9165 36.3542C20.9299 36.1139 20.9582 35.8972 21.0016 35.7041C21.0729 35.4403 21.1647 35.2033 21.2767 34.9932C21.3413 34.886 21.3769 34.8271 21.3833 34.8164C21.3919 34.8142 21.4027 34.8025 21.4156 34.781C21.4285 34.7596 21.4382 34.7435 21.4447 34.7328C21.4511 34.7221 21.4608 34.706 21.4737 34.6846C21.4953 34.661 21.5092 34.6439 21.5157 34.6331C21.6125 34.5089 21.7179 34.4007 21.8319 34.3087C21.9502 34.1973 22.0802 34.0967 22.2221 34.0069C22.3983 33.9085 22.5626 33.8359 22.7151 33.789C22.5519 33.8294 22.3854 33.8935 22.2157 33.9811C22.0631 34.0645 21.9224 34.1586 21.7934 34.2635C21.6708 34.3577 21.5558 34.4637 21.4482 34.5815C21.4417 34.5922 21.431 34.604 21.4159 34.6168C21.4095 34.6276 21.403 34.6383 21.3966 34.649C21.3901 34.6597 21.3836 34.6704 21.3772 34.6811C21.3686 34.6833 21.3611 34.6897 21.3546 34.7004C21.3481 34.7111 21.3374 34.7229 21.3223 34.7358C21.3159 34.7465 21.3137 34.7561 21.3158 34.7647C21.3008 34.7776 21.2556 34.8343 21.1803 34.935C21.051 35.1494 20.9475 35.3938 20.8696 35.6684C20.8091 35.8657 20.7646 36.091 20.7362 36.3442C20.6989 36.709 20.7078 37.0942 20.7627 37.5C20.7691 37.5257 20.7807 37.6095 20.7976 37.7512C20.8019 37.7683 20.8061 37.7855 20.8104 37.8027C20.8125 37.8113 20.8157 37.8242 20.82 37.8414C20.8242 37.8585 20.8274 37.8714 20.8295 37.88C20.8338 37.8972 20.8359 37.924 20.8358 37.9605C20.8401 37.9777 20.8432 37.9906 20.8454 37.9992C20.8837 38.1538 20.9039 38.2354 20.906 38.244C20.9103 38.2611 20.9167 38.2869 20.9252 38.3213C20.9316 38.347 20.9379 38.3728 20.9443 38.3986C20.9507 38.4243 20.9614 38.449 20.9764 38.4727C20.9849 38.507 21.004 38.5843 21.0338 38.7046C21.085 38.8378 21.1128 38.9129 21.117 38.9301C21.1255 38.9645 21.1415 39.0107 21.165 39.0687C21.1885 39.1267 21.2013 39.1599 21.2035 39.1685C21.2056 39.1771 21.2088 39.19 21.213 39.2072C21.2323 39.248 21.244 39.277 21.2483 39.2942C21.2504 39.3028 21.2557 39.3243 21.2642 39.3586C21.2792 39.3822 21.292 39.3973 21.3028 39.4038C21.4629 39.7926 21.6425 40.131 21.8414 40.419C21.942 40.5673 22.0105 40.6597 22.0469 40.6963C22.049 40.7049 22.0565 40.7167 22.0694 40.7318C22.0822 40.7468 22.0897 40.7586 22.0918 40.7672C22.1025 40.7737 22.1143 40.7844 22.1272 40.7995L22.1496 40.835C22.1603 40.8414 22.1732 40.8565 22.1882 40.8801C22.2096 40.893 22.2267 40.907 22.2396 40.9221C22.2524 40.9371 22.2653 40.9522 22.2781 40.9672C22.473 41.1651 22.6744 41.334 22.8823 41.4739C22.8951 41.489 22.9273 41.5084 22.9787 41.5321C23.0323 41.5644 23.0634 41.5795 23.072 41.5774C23.0741 41.5859 23.0859 41.5967 23.1073 41.6096C23.1374 41.6204 23.1577 41.6291 23.1685 41.6355C23.177 41.6334 23.1878 41.6398 23.2006 41.6549C23.2092 41.6528 23.2146 41.656 23.2167 41.6646C23.236 41.6689 23.2553 41.6733 23.2746 41.6776C23.4075 41.7358 23.5566 41.7855 23.7218 41.8266C23.8848 41.8592 24.0522 41.8724 24.2239 41.8663C24.2346 41.8728 24.2443 41.875 24.2529 41.8728C24.27 41.8686 24.2883 41.8686 24.3076 41.8729C24.3248 41.8687 24.3377 41.8655 24.3463 41.8634C24.4278 41.8614 24.4729 41.8593 24.4815 41.8572ZM26.6026 40.5386C26.5075 39.8237 26.4398 39.3846 26.3994 39.2214C26.3589 39.0582 26.2128 38.634 25.961 37.9489C26.0582 38.6723 26.127 39.1157 26.1675 39.2789C26.2079 39.4421 26.3529 39.862 26.6026 40.5386Z" fill="#5D4D35"/>
<path d="M37.7065 39.0264C37.7993 39.1009 37.8607 39.2299 37.8906 39.4133L37.8948 39.4395C37.9091 39.5268 37.9139 39.6112 37.9092 39.6926C37.893 39.7581 37.8746 39.8104 37.8541 39.8496C37.8454 39.851 37.8417 39.8561 37.8431 39.8648L34.8561 40.3517C34.8547 40.3429 34.854 40.3386 34.854 40.3386C34.8337 40.324 34.8076 40.3013 34.7757 40.2706L34.7736 40.2575C34.736 40.1919 34.7065 40.0936 34.6851 39.9626L34.6787 39.9233C34.6488 39.7399 34.6624 39.6032 34.7195 39.5132L34.7326 39.5111C34.9001 39.439 35.0219 39.3608 35.0979 39.2767C35.1665 39.2028 35.1901 39.1003 35.1688 38.9693C35.1517 38.8645 35.0731 38.6845 34.9328 38.4294L34.8158 38.2064C34.7018 37.9471 34.4615 37.8204 34.0949 37.8263C33.4063 37.9475 32.7592 38.0754 32.1535 38.21C32.0063 38.2968 31.9032 38.4346 31.8444 38.6235L31.8352 38.7326C31.8066 38.9973 31.8037 39.1995 31.8265 39.3392C31.8863 39.7061 32.0952 39.8872 32.453 39.8827C32.5792 39.9966 32.6536 40.1503 32.6762 40.3439C32.6973 40.5287 32.6722 40.6494 32.6007 40.7059L32.5897 40.7211L30.5591 41.0521L30.5439 41.0411C30.4407 41.0131 30.3713 40.8899 30.3357 40.6716C30.2987 40.4445 30.3276 40.2919 30.4224 40.2136L30.4486 40.2094C30.6263 40.1445 30.757 40.0112 30.8407 39.8092C30.9243 39.6073 31.0108 39.2301 31.1 38.6776L31.1691 38.2763C30.7913 38.1586 30.5953 38.0561 30.581 37.9687C30.5654 37.8727 30.8052 37.7215 31.3006 37.5152L32.2892 31.3693C32.3189 31.221 32.4159 31.129 32.5805 31.0932C32.7436 31.0487 32.8598 31.1015 32.929 31.2516L36.0321 36.7574C36.4975 36.8071 36.7373 36.8756 36.7515 36.963C36.7643 37.0416 36.6394 37.183 36.3768 37.3871L36.5633 37.7064C36.5648 37.7151 36.5655 37.7195 36.5655 37.7195C36.791 38.1131 36.9624 38.3945 37.0796 38.5637C37.1997 38.7503 37.3055 38.8765 37.3969 38.9423C37.4956 38.998 37.5988 39.026 37.7065 39.0264ZM33.709 37.1092C33.7963 37.095 33.8583 37.0625 33.8948 37.0117C33.9314 36.9609 33.9497 36.9086 33.9499 36.8547C33.9589 36.7995 33.9533 36.7376 33.9331 36.6692C33.913 36.6008 33.8965 36.5541 33.8835 36.5294C33.8704 36.5046 33.8625 36.4835 33.8597 36.466L33.8618 36.4791L33.3025 35.4406C33.1377 35.1446 32.973 34.8218 32.8084 34.4721L32.8301 34.5223C32.7636 34.3897 32.7006 34.3058 32.6411 34.2707C32.5889 34.2254 32.5438 34.2238 32.5058 34.2659C32.4766 34.3065 32.4553 34.3683 32.4419 34.4511C32.3967 34.8889 32.351 35.2684 32.3047 35.5897L32.1103 36.8722C32.0931 37.2067 32.2111 37.3534 32.4644 37.3121L33.709 37.1092ZM32.9602 32.9276C33.8181 34.6706 34.3562 35.744 34.5744 36.1478C34.7926 36.5515 35.4014 37.591 36.4007 39.2661C35.5413 37.5144 35.0025 36.4366 34.7843 36.0329C34.5661 35.6291 33.958 34.594 32.9602 32.9276Z" fill="#5D4D35"/>
<path d="M50.3821 37.9564C50.4534 37.9604 50.5203 38.0312 50.583 38.1688C50.6545 38.3059 50.6862 38.4456 50.6783 38.5881C50.6785 38.7211 50.6213 38.7915 50.5065 38.7994C50.347 38.8015 49.8258 38.8329 48.943 38.8935C48.069 38.9535 47.4778 38.9985 47.1694 39.0285C47.0458 39.037 46.9618 38.9763 46.9174 38.8463C46.8724 38.7074 46.8762 38.5697 46.9289 38.433C46.9905 38.2957 47.078 38.2143 47.1916 38.1888C47.4628 38.1347 47.6434 38.0513 47.7332 37.9387C47.8225 37.8173 47.8562 37.5977 47.8343 37.2799C47.8277 37.1827 47.7924 36.9279 47.7286 36.5154L47.1982 33.0526C47.113 32.8456 47.027 32.8205 46.9402 32.9772L45.3799 39.1248C45.0988 39.2949 44.8554 39.3027 44.6497 39.1483L42.1185 33.4812C42.0583 33.3789 42.0049 33.3116 41.9583 33.2793C41.9117 33.2471 41.8758 33.2407 41.8506 33.2601C41.8341 33.279 41.8186 33.3111 41.804 33.3565L41.7633 36.446C41.7586 36.7656 41.7654 37.0579 41.7835 37.3227C41.8145 37.773 41.8889 38.0827 42.007 38.252C42.1333 38.4119 42.3298 38.496 42.5964 38.5043C42.7036 38.5147 42.7885 38.5887 42.8512 38.7263C42.9221 38.8545 42.9444 38.986 42.9182 39.1208C42.9008 39.2551 42.8347 39.3261 42.7199 39.334C42.5781 39.3349 42.1937 39.3568 41.5669 39.3999C40.9401 39.4429 40.499 39.4776 40.2436 39.504C40.1112 39.5131 40.0183 39.453 39.9651 39.3236C39.9207 39.1936 39.9245 39.0558 39.9766 38.9103C40.0376 38.7642 40.1339 38.6822 40.2658 38.6643C40.4676 38.6327 40.622 38.5556 40.7288 38.4329C40.8351 38.3015 40.9133 38.0832 40.9633 37.7782C41.0133 37.4732 41.041 37.0367 41.0464 36.4686L41.0568 35.0709C40.6197 34.9057 40.3979 34.7746 40.3912 34.6775C40.3845 34.5804 40.6065 34.4543 41.0571 34.2992L41.0658 32.4891C41.0671 32.2495 41.0648 32.0856 41.0587 31.9973C41.0338 31.6353 40.9592 31.3877 40.8347 31.2543C40.7486 31.1626 40.6252 31.109 40.4644 31.0935C40.3762 31.0995 40.3058 31.1088 40.2535 31.1212L40.2402 31.1222C40.2396 31.1133 40.2393 31.1089 40.2393 31.1089C40.1267 31.0191 40.0634 30.8726 40.0495 30.6696L40.0486 30.6563C40.0377 30.4974 40.0639 30.3626 40.1273 30.2518C40.1425 30.2153 40.1545 30.1967 40.1633 30.1961L40.1624 30.1828C40.2955 30.1826 40.4108 30.1835 40.5086 30.1857C40.9695 30.1807 41.4033 30.1686 41.81 30.1496C42.0295 30.1168 42.2445 30.0842 42.4552 30.052C42.5517 30.0366 42.6656 30.0154 42.7968 29.9887C42.7968 29.9887 42.7971 29.9931 42.7977 30.0019C42.9103 30.0918 42.9733 30.2338 42.9866 30.428L42.9884 30.4545C42.9993 30.6134 42.9731 30.7483 42.9098 30.859L45.372 36.491L46.7519 30.6219C46.6563 30.522 46.6028 30.3882 46.5913 30.2204L46.5904 30.2072C46.5764 30.0042 46.6147 29.8507 46.7051 29.747C46.7045 29.7381 46.7042 29.7337 46.7042 29.7337C46.8373 29.7335 46.9571 29.7341 47.0636 29.7357C47.5157 29.7312 47.9451 29.7195 48.3518 29.7004C48.5713 29.6676 48.7863 29.6351 48.997 29.6029C49.0935 29.5874 49.2074 29.5663 49.3386 29.5396C49.3386 29.5396 49.3389 29.544 49.3395 29.5528C49.3578 29.5604 49.3769 29.5813 49.397 29.6154C49.4058 29.6148 49.4103 29.6145 49.4103 29.6145C49.4191 29.6139 49.4235 29.6136 49.4235 29.6136C49.4235 29.6136 49.4241 29.6224 49.4253 29.64C49.4259 29.6489 49.4262 29.6533 49.4262 29.6533C49.4859 29.7468 49.5199 29.8553 49.5284 29.9789L49.5302 30.0054C49.553 30.2078 49.5192 30.3609 49.4287 30.4647C49.4287 30.4647 49.4246 30.4694 49.4164 30.4789L49.4031 30.4798C49.3855 30.481 49.3678 30.4822 49.3502 30.4834C49.3319 30.4758 49.3139 30.4726 49.2963 30.4738C49.2786 30.475 49.261 30.4762 49.2433 30.4774C49.0597 30.5166 48.9281 30.6011 48.8483 30.7307C48.7438 30.8887 48.7049 31.1619 48.7316 31.5504C48.737 31.6298 48.7517 31.7796 48.7757 31.9997L49.0565 33.7633C49.4887 33.8578 49.7079 33.9492 49.7139 34.0375C49.7111 34.1263 49.5263 34.2765 49.1594 34.488L49.4251 36.226C49.5038 36.7262 49.5781 37.098 49.6481 37.3416C49.7262 37.5757 49.8169 37.7336 49.9201 37.8152C50.0232 37.8968 50.1773 37.9439 50.3821 37.9564ZM42.0028 31.214C42.7629 33.1132 43.2379 34.2825 43.4278 34.7218C43.6264 35.1606 44.1787 36.2935 45.0847 38.1206C44.3252 36.2302 43.8461 35.0656 43.6474 34.6269C43.457 34.1788 42.9088 33.0411 42.0028 31.214ZM47.6437 30.6272C47.9332 32.6474 48.1208 33.894 48.2065 34.3671C48.2922 34.8402 48.563 36.0723 49.0191 38.0633C48.8198 36.711 48.7094 35.9425 48.6878 35.7577C48.6656 35.5641 48.584 35.0863 48.443 34.3243C48.3014 33.5535 48.2066 33.0766 48.1585 32.8936C48.1193 32.71 47.9477 31.9545 47.6437 30.6272Z" fill="#5D4D35"/>
<path d="M58.3862 37.1294C58.6162 37.1337 58.7879 37.1811 58.9013 37.2718C58.8041 37.739 58.7229 38.2951 58.6578 38.94C58.5784 38.9297 58.4457 38.9228 58.2599 38.9193C58.0743 38.907 57.9284 38.8999 57.8222 38.8979C57.1234 38.8761 56.544 38.8608 56.0839 38.8523C55.4823 38.8411 54.9514 38.8356 54.4911 38.8359C53.9601 38.8349 53.4334 38.8384 52.9111 38.8463L52.858 38.8454C52.8408 38.8185 52.8278 38.8005 52.8192 38.7915C52.7676 38.7109 52.7432 38.591 52.7462 38.4317L52.7469 38.3919C52.7504 38.2061 52.7927 38.0741 52.8738 37.996L52.9003 37.9965C53.1042 37.9826 53.2599 37.9368 53.3676 37.8591C53.4839 37.7905 53.5616 37.6592 53.6006 37.4652C53.6486 37.2625 53.6762 36.9665 53.6835 36.5773L53.7232 34.4406C53.3549 34.2567 53.1672 34.1204 53.16 34.0318C53.1615 33.9522 53.3535 33.8584 53.7361 33.7504L53.7724 31.7996C53.7791 31.4368 53.762 31.1665 53.7211 30.9888C53.6801 30.811 53.6073 30.6813 53.5026 30.5997C53.4068 30.5183 53.2529 30.4623 53.0411 30.4318L53.0013 30.4311C52.9231 30.3499 52.8858 30.2165 52.8893 30.0307C52.8912 29.9245 52.9061 29.8363 52.934 29.766C52.9709 29.687 53.0028 29.639 53.0296 29.6217L53.0699 29.5959C53.9809 29.6306 54.9052 29.6611 55.8429 29.6874C56.6657 29.7027 57.325 29.7105 57.8206 29.7109C57.8648 29.7117 57.9179 29.7127 57.9798 29.7139C58.0419 29.7062 58.0951 29.7027 58.1394 29.7036C58.1924 29.7045 58.2411 29.7054 58.2853 29.7063C58.3738 29.7079 58.4353 29.7312 58.4699 29.7761C58.5133 29.8211 58.539 29.8703 58.5468 29.9236C58.5501 30.2245 58.566 30.5567 58.5946 30.9201C58.6025 30.9734 58.5969 31.0352 58.5779 31.1057C58.5678 31.1763 58.5221 31.2507 58.441 31.3288C58.3601 31.3981 58.2532 31.4316 58.1205 31.4291L58.094 31.4286C58.0232 31.4273 57.9527 31.4127 57.8824 31.3848C57.8209 31.3571 57.7641 31.3207 57.7118 31.2754C57.6596 31.2302 57.6161 31.1896 57.5813 31.1535C57.5556 31.1088 57.5255 31.064 57.4909 31.0191C57.4652 30.9744 57.4523 30.952 57.4523 30.952C57.2189 30.6556 56.8146 30.502 56.2395 30.4913L56.0006 30.4869C55.7609 30.5267 55.5849 30.7093 55.4727 31.0346L55.4294 33.3571C55.4774 33.6324 55.616 33.7943 55.8452 33.8428C56.1905 33.8404 56.4262 33.7784 56.5523 33.6568C56.6693 33.5528 56.7436 33.3639 56.7753 33.0901L56.7755 33.0768C56.7845 33.0681 56.7891 33.0638 56.7891 33.0638C56.8702 32.9857 56.9992 32.9482 57.1761 32.9515L57.2027 32.952C57.3708 32.9551 57.4983 32.9973 57.5853 33.0786C57.5852 33.0875 57.5851 33.0919 57.5851 33.0919C57.5744 33.1891 57.5638 33.2862 57.5531 33.3834C57.5526 33.4099 57.552 33.4453 57.5511 33.4895C57.5503 33.5338 57.5497 33.5647 57.5494 33.5824C57.5355 33.8565 57.5268 34.0865 57.5233 34.2723C57.5182 34.5466 57.5204 34.9051 57.5298 35.3478L57.5166 35.3475L57.5163 35.3608C57.4264 35.4388 57.2973 35.4762 57.1292 35.4731L57.1027 35.4726C56.9346 35.4695 56.807 35.4273 56.72 35.346C56.72 35.346 56.7157 35.3415 56.707 35.3325L56.7073 35.3192C56.6665 35.1326 56.6027 34.9942 56.5158 34.9041C56.3856 34.7689 56.1436 34.6936 55.7899 34.6782C55.5765 34.7273 55.4454 34.8797 55.3964 35.1355L55.3697 36.5688C55.3624 36.9581 55.3835 37.255 55.4328 37.4595C55.4821 37.6639 55.5723 37.8072 55.7036 37.8893C55.8259 37.9713 56.0154 38.0146 56.272 38.0194L56.4047 38.0219C56.7763 38.0288 57.0739 37.9724 57.2974 37.8526C57.5209 37.7329 57.6968 37.5547 57.8251 37.3181C57.8252 37.3093 57.8298 37.3005 57.8388 37.2918C57.848 37.2743 57.8527 37.2611 57.8528 37.2523C57.9695 37.1659 58.1384 37.1248 58.3596 37.1289L58.3862 37.1294ZM54.4526 38.0519C54.5703 36.0096 54.6335 34.7496 54.6424 34.2718C54.6515 33.7852 54.6351 32.5237 54.5934 30.4872C54.4759 32.5207 54.4126 33.7807 54.4035 34.2674C54.3946 34.7451 54.411 36.0066 54.4526 38.0519Z" fill="#5D4D35"/>
<path d="M68.0885 31.3561C68.7805 32.042 69.0493 33.2221 68.8948 34.8963C68.7719 36.2269 68.4357 37.2223 67.8859 37.8825C67.6155 38.213 67.3327 38.4846 67.0376 38.6973C66.7521 38.902 66.4498 39.0474 66.1309 39.1335C65.5482 39.2841 64.9961 39.3442 64.4746 39.3138C64.4482 39.3114 64.4041 39.3073 64.3424 39.3016C63.3379 39.2089 62.2789 39.1289 61.1654 39.0617L61.1125 39.0568C61.0413 38.9613 61.0143 38.8211 61.0313 38.6361L61.035 38.5964C61.0521 38.4114 61.1039 38.2828 61.1906 38.2109L61.3095 38.2218C61.5226 38.2237 61.6857 38.1899 61.7988 38.1204C61.911 38.0596 61.9981 37.9344 62.0601 37.7446C62.114 37.5452 62.1589 37.2516 62.1947 36.8639L62.3875 34.7755C61.9824 34.5426 61.7799 34.3773 61.7801 34.2796C61.7882 34.1915 62.0139 34.1056 62.457 34.0221L62.6339 32.1056C62.6673 31.7443 62.6749 31.4695 62.6567 31.2812C62.6376 31.1995 62.6173 31.131 62.5957 31.0757C62.5742 31.0203 62.5005 30.9513 62.3749 30.8687C62.258 30.7868 62.0951 30.7229 61.886 30.6769C61.8141 30.5903 61.7866 30.4544 61.8037 30.2694L61.8073 30.2297C61.8244 30.0447 61.8763 29.9162 61.9629 29.8442L62.0158 29.8491C62.7279 29.9326 63.4977 30.017 64.3252 30.1022C64.4053 30.1008 64.4718 30.1024 64.5247 30.1073L65.2132 30.1576C66.4468 30.2714 67.4053 30.6709 68.0885 31.3561ZM62.9064 38.3959C63.1736 36.3677 63.3292 35.1157 63.3731 34.6399C63.4178 34.1553 63.4941 32.8959 63.6019 30.8619C63.3267 32.8805 63.1667 34.1321 63.122 34.6167C63.078 35.0926 63.0062 36.3523 62.9064 38.3959ZM64.1263 38.3219C64.2423 38.4126 64.4281 38.4697 64.6836 38.4933C65.2828 38.5486 65.8051 38.3302 66.2504 37.8381C66.6949 37.3549 66.9835 36.3951 67.1161 34.9588C67.2397 33.6194 67.1041 32.6338 66.7092 32.0019C66.3151 31.3612 65.7656 31.0084 65.0607 30.9433C64.8051 30.9197 64.5988 30.9406 64.4417 31.0061L64.1489 34.1783C64.5692 34.3415 64.7754 34.4672 64.7672 34.5553C64.7583 34.6522 64.529 34.7777 64.0793 34.9317L63.8902 36.9804C63.8544 37.3681 63.8536 37.6658 63.8878 37.8733C63.9219 38.0809 64.0014 38.2304 64.1263 38.3219ZM68.0905 35.0887C68.0978 35.0094 68.1019 34.9653 68.1027 34.9565L68.1137 34.8376C68.113 34.7486 68.1163 34.6645 68.1237 34.5852C68.1237 34.5852 68.127 34.5011 68.1336 34.3329C68.1353 34.3152 68.1329 34.2928 68.1265 34.2656C68.1298 34.2303 68.1318 34.2083 68.1326 34.1995C68.1342 34.1819 68.1319 34.1594 68.1255 34.1322L68.1316 34.0661C68.1252 34.0388 68.1201 33.9984 68.1161 33.9447C68.1218 33.883 68.1219 33.8341 68.1163 33.7981C68.114 33.7268 68.105 33.6326 68.0891 33.5156C68.0915 33.4892 68.0868 33.4443 68.0749 33.381C68.0701 33.3361 68.0614 33.2865 68.0486 33.232C68.0503 33.2143 68.0483 33.1875 68.0427 33.1514C68.0427 33.1514 68.036 33.1286 68.0224 33.0829C68.0097 33.0284 67.9965 32.9783 67.983 32.9326C67.983 32.9326 67.9794 32.9234 67.9722 32.905C67.9746 32.8785 67.9718 32.8605 67.9638 32.8509C67.9647 32.8421 67.9615 32.8284 67.9543 32.81C67.9559 32.7924 67.9527 32.7788 67.9447 32.7691C67.9384 32.7419 67.9252 32.6918 67.9053 32.6189C67.8981 32.6004 67.8909 32.582 67.8837 32.5636C67.8765 32.5451 67.8694 32.5267 67.8622 32.5082C67.8558 32.481 67.8486 32.4626 67.8406 32.4529C67.8127 32.3704 67.7911 32.3151 67.7759 32.287C67.732 32.1852 67.7061 32.1295 67.6981 32.1199C67.6605 32.0453 67.6302 31.9892 67.607 31.9515C67.4703 31.6989 67.304 31.4792 67.108 31.2922C67.0912 31.2818 67.0623 31.2569 67.0215 31.2176C67.0127 31.2168 66.9999 31.2112 66.9831 31.2007C66.9751 31.1911 66.9671 31.1815 66.9591 31.1719C66.9511 31.1622 66.9431 31.1526 66.9351 31.143C66.9015 31.1221 66.8679 31.1012 66.8343 31.0803C66.8351 31.0715 66.8267 31.0663 66.809 31.0647C66.801 31.0551 66.7926 31.0498 66.7838 31.049C66.7846 31.0402 66.7762 31.035 66.7586 31.0334C66.7506 31.0237 66.747 31.0145 66.7478 31.0057C66.6214 30.9318 66.4772 30.8563 66.3155 30.7792C66.153 30.7109 65.9844 30.6598 65.8098 30.6259C65.6088 30.5895 65.4237 30.5725 65.2547 30.5746C65.4229 30.5813 65.6071 30.6072 65.8074 30.6523C65.9715 30.703 66.1305 30.7621 66.2842 30.8296C66.4459 30.9068 66.5848 30.9907 66.7009 31.0814C66.7009 31.0814 66.7093 31.0866 66.7261 31.097C66.7341 31.1066 66.7381 31.1115 66.7381 31.1115C66.7549 31.1219 66.7717 31.1323 66.7885 31.1428C66.8293 31.1821 66.8581 31.207 66.8749 31.2174C66.9157 31.2567 66.9401 31.2812 66.9481 31.2908C66.9889 31.3301 67.0177 31.355 67.0346 31.3654C67.2121 31.5596 67.3609 31.7777 67.4807 32.0198C67.5334 32.1224 67.5594 32.1781 67.5586 32.187C67.5801 32.2423 67.6021 32.2932 67.6245 32.3397C67.6396 32.3677 67.6568 32.4226 67.6759 32.5044C67.6839 32.514 67.6907 32.5368 67.6962 32.5729C67.7106 32.6098 67.721 32.6418 67.7273 32.6691C67.8206 33.0065 67.8742 33.3891 67.888 33.817C67.8952 33.8354 67.8963 33.9199 67.8912 34.0706C67.8984 34.089 67.9008 34.1114 67.8984 34.1379C67.8959 34.1643 67.8939 34.1863 67.8923 34.2039C67.8898 34.2304 67.8906 34.2704 67.8945 34.3241C67.8929 34.3417 67.8892 34.3814 67.8835 34.4431C67.8874 34.4968 67.8878 34.5412 67.8845 34.5765C67.8796 34.6293 67.8723 34.7087 67.8626 34.8144L67.8648 34.9346C67.8632 34.9522 67.8563 34.9782 67.8443 35.0127C67.8418 35.0391 67.8402 35.0567 67.8394 35.0655C67.8345 35.1184 67.8272 35.1977 67.8174 35.3034C67.815 35.3299 67.8109 35.3739 67.8052 35.4356C67.8012 35.4797 67.7931 35.5189 67.781 35.5534C67.7584 35.7023 67.7458 35.79 67.7434 35.8165C67.724 35.9302 67.7071 36.0175 67.6926 36.0784C67.6901 36.1048 67.6812 36.1529 67.6659 36.2226C67.6514 36.2834 67.6381 36.3311 67.6261 36.3655L67.6236 36.3919C67.6228 36.4008 67.6216 36.414 67.62 36.4316C67.6071 36.4748 67.6007 36.4965 67.6007 36.4965C67.5886 36.5309 67.5749 36.583 67.5596 36.6526C67.5596 36.6526 67.5419 36.6999 67.5065 36.7944C67.5049 36.812 67.498 36.838 67.486 36.8725C67.4739 36.9069 67.4626 36.9325 67.4522 36.9493C67.3469 37.224 67.252 37.4329 67.1677 37.5762C67.0296 37.8212 66.8679 38.0329 66.6825 38.2113C66.6729 38.2193 66.6196 38.2677 66.5225 38.3565C66.5129 38.3645 66.4984 38.3765 66.4792 38.3925C66.4511 38.4076 66.4371 38.4152 66.4371 38.4152C66.389 38.4552 66.3601 38.4792 66.3505 38.4872C66.3409 38.4952 66.3268 38.5028 66.3084 38.51C66.2988 38.518 66.2891 38.526 66.2795 38.534C66.2699 38.542 66.2607 38.5456 66.2519 38.5448C66.2054 38.5671 66.1681 38.5859 66.14 38.6011L66.1111 38.6251C66.1111 38.6251 66.1019 38.6287 66.0835 38.6359C66.0835 38.6359 66.0743 38.6395 66.0558 38.6466C66.0462 38.6546 66.037 38.6582 66.0282 38.6574C66.0282 38.6574 66.019 38.661 66.0005 38.6682C65.9909 38.6762 65.9817 38.6798 65.9729 38.679C65.9536 38.695 65.9352 38.7022 65.9175 38.7005C65.7604 38.766 65.5965 38.8086 65.4259 38.8284C65.4074 38.8356 65.385 38.838 65.3586 38.8356C65.3497 38.8347 65.3361 38.8379 65.3177 38.8451C65.3089 38.8443 65.3001 38.8435 65.2912 38.8427C65.2199 38.845 65.1711 38.8449 65.1446 38.8425C65.0381 38.8415 64.9456 38.833 64.8671 38.8168C64.9447 38.8418 65.0369 38.8547 65.1434 38.8557C65.1698 38.8581 65.2183 38.8626 65.2888 38.8691C65.2888 38.8691 65.3112 38.8667 65.3561 38.862C65.3825 38.8644 65.405 38.8621 65.4234 38.8549C65.6021 38.8447 65.774 38.8117 65.9391 38.7558C65.9479 38.7567 65.9567 38.7575 65.9655 38.7583C65.984 38.7511 65.9932 38.7475 65.9932 38.7475C66.0028 38.7395 66.0124 38.7315 66.0221 38.7235C66.0405 38.7163 66.0541 38.7131 66.0629 38.714C66.0814 38.7068 66.0998 38.6996 66.1183 38.6924C66.1183 38.6924 66.1227 38.6928 66.1315 38.6936C66.1411 38.6856 66.1459 38.6816 66.1459 38.6816L66.1736 38.6708C66.2016 38.6557 66.2389 38.6369 66.2854 38.6145C66.2942 38.6153 66.3082 38.6077 66.3275 38.5917C66.3556 38.5766 66.3744 38.565 66.384 38.557C66.4025 38.5498 66.4353 38.5306 66.4826 38.4994C66.4923 38.4914 66.5019 38.4834 66.5115 38.4754C66.5212 38.4674 66.5304 38.4638 66.5392 38.4647C66.5584 38.4487 66.5729 38.4367 66.5825 38.4287C66.6876 38.3495 66.7453 38.3015 66.7557 38.2847C66.9491 38.1159 67.1284 37.9059 67.2938 37.6545C67.3877 37.5032 67.4962 37.2911 67.6192 37.0181C67.6529 36.9412 67.6754 36.8899 67.6867 36.8643C67.7229 36.761 67.741 36.7094 67.741 36.7094C67.7426 36.6917 67.7607 36.6401 67.7953 36.5544C67.7961 36.5456 67.7973 36.5324 67.7989 36.5148C67.8094 36.498 67.8146 36.4896 67.8146 36.4896C67.8154 36.4807 67.8166 36.4675 67.8182 36.4499L67.8351 36.4115C67.8375 36.385 67.8448 36.3546 67.8569 36.3202C67.8689 36.2857 67.8766 36.2509 67.8798 36.2156C67.8919 36.1812 67.9036 36.1512 67.9148 36.1256C67.9156 36.1168 67.9326 36.0295 67.9657 35.8637C67.9785 35.8204 67.9955 35.7331 68.0165 35.6017C68.0206 35.5577 68.029 35.514 68.0419 35.4708C68.0484 35.4003 68.0525 35.3562 68.0541 35.3386C68.0566 35.3122 68.0602 35.2725 68.0651 35.2197C68.0708 35.158 68.0793 35.1143 68.0905 35.0887Z" fill="#5D4D35"/>
<path d="M77.9761 40.435C78.0395 40.5357 78.0554 40.6777 78.0237 40.8608L78.0191 40.8869C78.0041 40.9741 77.981 41.0555 77.95 41.1309C77.9133 41.1874 77.8788 41.2309 77.8466 41.2612C77.8379 41.2597 77.8328 41.2633 77.8313 41.272L74.8492 40.7559C74.8507 40.7472 74.8514 40.7428 74.8514 40.7428C74.837 40.7224 74.8198 40.6925 74.7996 40.6531L74.8019 40.64C74.7878 40.5657 74.7921 40.4632 74.8147 40.3324L74.8215 40.2931C74.8532 40.11 74.9107 39.9853 74.9941 39.9189L75.0071 39.9211C75.1891 39.9077 75.3297 39.8737 75.4289 39.819C75.518 39.7715 75.5738 39.6824 75.5965 39.5516C75.6146 39.447 75.599 39.2512 75.5499 38.9643L75.5122 38.7153C75.4892 38.4329 75.3035 38.2346 74.9551 38.1205C74.2647 38.01 73.6113 37.9193 72.9949 37.8486C72.8274 37.8825 72.685 37.979 72.5676 38.1383L72.5233 38.2384C72.4098 38.4792 72.341 38.6694 72.3168 38.8089C72.2534 39.1751 72.3916 39.4146 72.7313 39.5273C72.8133 39.6762 72.8334 39.8458 72.7915 40.0361C72.7511 40.2177 72.6878 40.3235 72.6018 40.3535L72.5865 40.3643L70.5592 40.0135L70.5484 39.9981C70.46 39.9379 70.4347 39.7988 70.4724 39.5809C70.5116 39.3541 70.5889 39.2193 70.7041 39.1764L70.7302 39.1809C70.9194 39.1777 71.0865 39.0944 71.2315 38.9309C71.3766 38.7674 71.5815 38.4392 71.8465 37.9462L72.0429 37.5895C71.7243 37.3548 71.5726 37.1938 71.5876 37.1066C71.6042 37.0107 71.8803 36.9462 72.4159 36.9132L75.3589 31.4279C75.4354 31.2975 75.5572 31.2422 75.7244 31.2622C75.8931 31.2734 75.9856 31.3613 76.0021 31.5258L77.1353 37.7434C77.5588 37.9424 77.7631 38.0856 77.748 38.1727C77.7344 38.2512 77.5701 38.344 77.2552 38.4512L77.3272 38.8139C77.3257 38.8226 77.3249 38.827 77.3249 38.827C77.4094 39.2727 77.4794 39.5946 77.5349 39.7928C77.5874 40.0085 77.6461 40.1623 77.711 40.2544C77.7861 40.3392 77.8745 40.3994 77.9761 40.435ZM74.8248 37.3166C74.912 37.3317 74.9811 37.3212 75.0323 37.2851C75.0834 37.2491 75.1179 37.2057 75.1356 37.1549C75.1621 37.1056 75.1771 37.0453 75.1804 36.974C75.1838 36.9027 75.1833 36.8533 75.1791 36.8256C75.175 36.7979 75.1744 36.7754 75.1774 36.758L75.1751 36.771L74.986 35.6067C74.9269 35.2732 74.8768 34.9143 74.8355 34.53L74.8396 34.5845C74.8201 34.4375 74.788 34.3376 74.7432 34.285C74.7087 34.2251 74.6666 34.2089 74.617 34.2362C74.5761 34.265 74.5357 34.3164 74.496 34.3904C74.3102 34.7893 74.1429 35.133 73.9942 35.4216L73.3913 36.5701C73.2657 36.8806 73.3294 37.0578 73.5822 37.1016L74.8248 37.3166ZM75.4837 33.1199C75.7249 35.0476 75.8826 36.2379 75.9569 36.6908C76.0311 37.1437 76.2668 38.325 76.6637 40.2348C76.424 38.2984 76.2671 37.1037 76.1928 36.6508C76.1185 36.1979 75.8821 35.0209 75.4837 33.1199Z" fill="#5D4D35"/>
<path d="M87.6799 34.1859C88.126 34.2988 88.4499 34.3716 88.6515 34.4043C88.5843 34.6703 88.4923 34.9254 88.3758 35.1698C88.2019 35.1714 88.0182 35.2482 87.8246 35.4C87.6418 35.5455 87.42 35.8088 87.1592 36.1902L84.8774 39.4193L84.6821 40.1914C85.13 40.4416 85.342 40.6139 85.3181 40.7082C85.2899 40.8198 85.0139 40.9188 84.4899 41.0053C84.4551 41.1791 84.4375 41.3207 84.4372 41.4301C84.426 41.619 84.4621 41.765 84.5455 41.8683C84.6225 41.9608 84.7875 42.0482 85.0405 42.1304C85.1025 42.2465 85.1095 42.3989 85.0618 42.5876C85.0444 42.6563 85.0131 42.7259 84.9679 42.7966C84.9312 42.8695 84.886 42.922 84.8322 42.954L81.5894 42.1337C81.5317 42.037 81.5256 41.8985 81.5712 41.7184C81.6233 41.5125 81.6988 41.3764 81.7977 41.3102C82.0594 41.3581 82.2461 41.3597 82.3579 41.3149C82.4803 41.2638 82.5858 41.1535 82.6743 40.9842C82.7196 40.877 82.7705 40.7301 82.8268 40.5436C82.4111 40.3106 82.2152 40.147 82.239 40.0526C82.2651 39.9497 82.5304 39.857 83.035 39.7747L83.24 38.964L82.6309 34.5518C82.5845 34.2662 82.5164 34.0482 82.4267 33.8977C82.3456 33.7494 82.23 33.6471 82.0799 33.5909C82.0761 33.3892 82.1177 33.1167 82.2045 32.7736C82.4747 32.8602 82.9701 32.9946 83.6907 33.1769C84.5314 33.3895 85.0827 33.5198 85.3444 33.5678C85.2706 33.8595 85.1829 34.1157 85.0815 34.3365C84.7939 34.3185 84.6208 34.4253 84.5623 34.657C84.5254 34.8028 84.5247 35.04 84.5603 35.3685C84.6799 36.3389 84.7759 37.3307 84.8482 38.3439C85.3224 37.6241 85.8709 36.809 86.4936 35.8986C86.6724 35.6608 86.7825 35.4605 86.8237 35.2975C86.8931 35.0229 86.7789 34.8252 86.4809 34.7041C86.4837 34.4402 86.521 34.1666 86.5926 33.8835C86.8113 33.9571 87.1737 34.0579 87.6799 34.1859ZM84.089 39.2883C84.0912 39.2797 84.0934 39.2712 84.0956 39.2626C84.0977 39.254 84.0999 39.2454 84.1021 39.2368C84.0959 39.1531 84.0876 39.0415 84.0772 38.902C84.0669 38.7624 84.0597 38.6648 84.0555 38.6089C84.0389 38.4222 84.0243 38.2451 84.0119 38.0776C83.9785 37.7406 83.9398 37.3885 83.8957 37.0214C83.8603 36.6564 83.7206 35.5668 83.4766 33.7525C83.5789 35.5857 83.6434 36.6837 83.6703 37.0465C83.7036 37.42 83.7381 37.771 83.7736 38.0995C83.786 38.2669 83.8049 38.4451 83.8301 38.6341C83.8448 38.7564 83.8563 38.8552 83.8647 38.9303C83.8774 38.9883 83.8826 39.0399 83.8804 39.0849C83.8804 39.0849 83.8825 39.0946 83.8867 39.1139C83.891 39.1332 83.892 39.1472 83.8898 39.1558C83.8962 39.1665 83.9015 39.1816 83.9058 39.2009L83.8993 39.2266C83.8601 39.4175 83.7775 39.7983 83.6514 40.3688C83.5361 40.9329 83.4339 41.4274 83.3447 41.8521C83.6286 40.8742 83.7738 40.3724 83.7803 40.3466C83.8172 40.2008 83.8757 40.0056 83.9557 39.7612C83.9623 39.7355 83.9731 39.6926 83.9883 39.6325C84.0035 39.5725 84.0154 39.5253 84.0241 39.491C84.0284 39.4738 84.0425 39.4363 84.0663 39.3784C84.0663 39.3784 84.0684 39.3698 84.0728 39.3527C84.0771 39.3355 84.0804 39.3226 84.0825 39.3141C84.0825 39.3141 84.0836 39.3098 84.0858 39.3012C84.088 39.2926 84.089 39.2883 84.089 39.2883Z" fill="#5D4D35"/>
<path d="M61.5674 52.8351C61.5697 52.8353 61.572 52.8356 61.5743 52.8358C61.591 52.8373 61.6079 52.8377 61.625 52.8368L61.6306 52.8364L61.6331 52.8362L61.6377 52.8358C62.212 52.7833 62.7544 52.759 63.2665 52.7606C63.4548 50.0697 66.6056 46.6976 69.5246 46.5068C69.5096 45.9334 69.5422 45.3865 69.6077 44.8908C69.6345 44.6881 69.4797 44.5037 69.2758 44.519C68.5914 44.5703 67.8978 44.7566 67.2197 45.048C64.8893 46.0491 62.7427 48.2902 61.7869 50.5532C61.5085 51.2122 61.3312 51.873 61.2797 52.5057C61.2657 52.6777 61.4015 52.8161 61.5674 52.8351Z" fill="#5D4D35"/>
<path d="M79.0459 54.3339C78.4524 54.3675 77.8938 54.3689 77.368 54.3414C77.1431 56.643 73.632 60.1404 71.31 60.5789L71.3088 60.6129C71.302 60.7935 71.2908 60.9716 71.2755 61.1466C71.2556 61.3746 71.2289 61.5971 71.1964 61.8128C71.1729 61.969 71.1463 62.1215 71.1171 62.2697C71.076 62.4787 71.2316 62.6767 71.4426 62.6477C74.4019 62.241 79.0501 57.6849 79.4088 54.663C79.4286 54.4959 79.3004 54.3597 79.1394 54.3357C79.1222 54.3332 79.1045 54.3319 79.0867 54.332C79.0807 54.332 79.0748 54.3322 79.0688 54.3325L79.0459 54.3339Z" fill="#5D4D35"/>
<path d="M63.7145 52.7688C63.916 50.2636 66.8334 47.1477 69.5458 46.9539C69.6481 48.4383 70.0803 50.0526 71.08 51.3941L71.8387 50.6354C72.0965 50.3776 72.5144 50.3776 72.7722 50.6354L73.0034 50.8666C73.2612 51.1244 73.2612 51.5423 73.0034 51.8001L72.2201 52.5834C73.3298 53.4843 74.8515 54.1283 76.9071 54.3092C76.6771 56.4385 73.4801 59.6386 71.3155 60.1072C71.2971 58.4163 70.8618 56.58 69.6372 55.1663L61.3571 63.4464C61.0355 63.768 60.514 63.768 60.1924 63.4464C59.8708 63.1248 59.8708 62.6033 60.1924 62.2817L68.396 54.0781C67.266 53.3292 65.7418 52.8374 63.7145 52.7688Z" fill="#5D4D35"/>
<path d="M37.9494 8.15569C41.204 8.04797 43.5747 9.5781 44.3532 10.3566L42.499 12.2109C40.6538 10.8601 39.6683 10.6163 37.9435 10.2513C36.2187 9.88634 35.1086 10.136 33.5075 9.64738C31.9064 9.15878 30.4531 7.98058 31.0476 7.68196C31.5413 7.434 31.4163 8.05073 32.6487 8.17051C34.1655 8.31793 33.8811 8.29034 37.9494 8.15569Z" fill="#5D4D35"/>
<path d="M47.6081 17.8144C47.7158 14.5598 46.1857 12.1891 45.4072 11.4106L43.5529 13.2648C44.9037 15.11 45.1475 16.0955 45.5125 17.8203C45.8775 19.5451 45.6278 20.6552 46.1164 22.2563C46.605 23.8574 47.7832 25.3107 48.0818 24.7162C48.3298 24.2225 47.7131 24.3475 47.5933 23.115C47.4459 21.5983 47.4735 21.8827 47.6081 17.8144Z" fill="#5D4D35"/>
<path d="M47.0514 8.4763C47.2014 8.45085 47.3315 8.58103 47.3061 8.73095L46.806 11.6758C46.776 11.8525 46.559 11.9217 46.4322 11.7949L45.4874 10.8501L34.8891 21.4485C34.8516 21.1507 34.5962 20.9124 34.2943 20.8998L44.9157 10.2784L43.9874 9.35018C43.8607 9.2234 43.9299 9.00638 44.1066 8.97636L47.0514 8.4763Z" fill="#5D4D35"/>
<path d="M34.6159 21.6507C34.6475 21.3756 34.3917 21.1271 34.1186 21.1673L32.2168 21.4293C32.1356 21.4412 32.0687 21.4757 32.0179 21.5244L30.5832 22.9591C30.569 22.9733 30.5587 22.9913 30.5579 23.0131C30.5523 23.1708 30.7327 23.2884 30.8846 23.3036C31.3666 23.3517 31.9453 23.4619 32.2599 23.526C32.324 23.8406 32.4342 24.4193 32.4823 24.9013C32.4974 25.0532 32.6151 25.2335 32.7728 25.2279C32.7946 25.2272 32.8126 25.2168 32.8267 25.2027L34.2615 23.7679C34.3127 23.7146 34.3482 23.6433 34.358 23.5567L34.6159 21.6507Z" fill="#5D4D35"/>
<path d="M32.1969 9.04585L32.0228 8.87178L31.8355 8.91835L31.1745 21.9741L31.8159 21.3328C31.8541 21.296 31.8994 21.2653 31.951 21.243L32.5525 9.36233L32.1969 9.04585Z" fill="#5D4D35"/>
<path d="M46.7407 23.5896L46.9147 23.7637L46.8682 23.951L33.8124 24.612L34.4432 23.9812L34.4537 23.9707C34.4905 23.9324 34.5212 23.8872 34.5435 23.8355L46.4242 23.234L46.7407 23.5896Z" fill="#5D4D35"/>
<path d="M37.9494 8.15569C41.204 8.04797 43.5747 9.5781 44.3532 10.3566L42.499 12.2109C40.6538 10.8601 39.6683 10.6163 37.9435 10.2513C36.2187 9.88634 35.1086 10.136 33.5075 9.64738C31.9064 9.15878 30.4531 7.98058 31.0476 7.68196C31.5413 7.434 31.4163 8.05073 32.6487 8.17051C34.1655 8.31793 33.8811 8.29034 37.9494 8.15569Z" fill="#5D4D35"/>
<path d="M47.6081 17.8144C47.7158 14.5598 46.1857 12.1891 45.4072 11.4106L43.5529 13.2648C44.9037 15.11 45.1475 16.0955 45.5125 17.8203C45.8775 19.5451 45.6278 20.6552 46.1164 22.2563C46.605 23.8574 47.7832 25.3107 48.0818 24.7162C48.3298 24.2225 47.7131 24.3475 47.5933 23.115C47.4459 21.5983 47.4735 21.8827 47.6081 17.8144Z" fill="#5D4D35"/>
<path d="M47.0514 8.4763C47.2014 8.45085 47.3315 8.58103 47.3061 8.73095L46.806 11.6758C46.776 11.8525 46.559 11.9217 46.4322 11.7949L45.4874 10.8501L34.8891 21.4485C34.8516 21.1507 34.5962 20.9124 34.2943 20.8998L44.9157 10.2784L43.9874 9.35018C43.8607 9.2234 43.9299 9.00638 44.1066 8.97636L47.0514 8.4763Z" fill="#5D4D35"/>
<path d="M34.6159 21.6507C34.6475 21.3756 34.3917 21.1271 34.1186 21.1673L32.2168 21.4293C32.1356 21.4412 32.0687 21.4757 32.0179 21.5244L30.5832 22.9591C30.569 22.9733 30.5587 22.9913 30.5579 23.0131C30.5523 23.1708 30.7327 23.2884 30.8846 23.3036C31.3666 23.3517 31.9453 23.4619 32.2599 23.526C32.324 23.8406 32.4342 24.4193 32.4823 24.9013C32.4974 25.0532 32.6151 25.2335 32.7728 25.2279C32.7946 25.2272 32.8126 25.2168 32.8267 25.2027L34.2615 23.7679C34.3127 23.7146 34.3482 23.6433 34.358 23.5567L34.6159 21.6507Z" fill="#5D4D35"/>
<path d="M32.585 9.08806L31.8434 8.69778L31.8359 8.91795L31.1749 21.9737L31.8162 21.3323C31.8545 21.2956 31.8997 21.2649 31.9514 21.2426L32.5529 9.36194L32.585 9.08806Z" fill="#5D4D35"/>
<path d="M46.6952 23.2373L47.0855 23.9399L33.8124 24.6119L34.4432 23.9812L34.4537 23.9707C34.4905 23.9324 34.5212 23.8871 34.5435 23.8354L46.4241 23.2339L46.6952 23.2373Z" fill="#5D4D35"/>
<path fill-rule="evenodd" clip-rule="evenodd" d="M91.4769 46.9175L92.7202 47.9189L86.7686 49.1495C86.7302 49.3833 86.688 49.6162 86.6422 49.8481L93.5496 48.4198C93.6706 48.3948 93.7604 48.3055 93.7822 48.1887C93.804 48.0719 93.7541 47.9472 93.6529 47.8657L93.2603 47.5495V47.5819C93.2603 47.5819 92.6346 47.3286 91.4769 46.9175Z" fill="#5D4D35"/>
<path fill-rule="evenodd" clip-rule="evenodd" d="M93.2603 45.4632L105.576 48.0685L101.423 50.4515L100.622 50.9113L101.024 51.6258L103.112 55.3288L86.1784 51.7466C86.0964 52.0278 86.0087 52.3071 85.9156 52.5844L103.683 56.3432L104.897 56.5998L104.325 55.5855L101.835 51.1679L106.789 48.3252L107.927 47.6725L106.713 47.4158L93.2603 44.5698V45.4632Z" fill="#5D4D35"/>
<path fill-rule="evenodd" clip-rule="evenodd" d="M54.7191 27.4792C61.2125 27.5033 67.3583 28.1822 72.7557 29.1109C78.1832 29.9766 82.8541 31.0765 86.3609 32.0284V8.21198L82.818 6.85836L68.402 2.67445L54.7191 0.95166V27.4792ZM70.8969 25.6946C76.284 25.6946 80.6511 21.3275 80.6511 15.9404C80.6511 10.5533 76.284 6.18612 70.8969 6.18612C65.5097 6.18612 61.1426 10.5533 61.1426 15.9404C61.1426 21.3275 65.5097 25.6946 70.8969 25.6946ZM70.8969 23.5271C75.0869 23.5271 78.4836 20.1304 78.4836 15.9404C78.4836 11.7504 75.0869 8.35378 70.8969 8.35378C66.7069 8.35378 63.3103 11.7504 63.3103 15.9404C63.3103 20.1304 66.7069 23.5271 70.8969 23.5271ZM70.897 21.3594C73.8898 21.3594 76.316 18.9332 76.316 15.9404C76.316 12.9475 73.8898 10.5214 70.897 10.5214C67.9041 10.5214 65.4779 12.9475 65.4779 15.9404C65.4779 18.9332 67.9041 21.3594 70.897 21.3594ZM70.897 19.1919C72.6927 19.1919 74.1484 17.7362 74.1484 15.9405C74.1484 14.1447 72.6927 12.689 70.897 12.689C69.1013 12.689 67.6456 14.1447 67.6456 15.9405C67.6456 17.7362 69.1013 19.1919 70.897 19.1919ZM70.8969 16.892C71.4224 16.892 71.8485 16.466 71.8485 15.9404C71.8485 15.4148 71.4224 14.9887 70.8969 14.9887C70.3713 14.9887 69.9452 15.4148 69.9452 15.9404C69.9452 16.466 70.3713 16.892 70.8969 16.892Z" fill="#5D4D35"/>
<path fill-rule="evenodd" clip-rule="evenodd" d="M22.9582 45.0905V48.1765L25.3373 55.4327L30.3334 61.6184L54.6001 79.4615L54.7179 40.588C54.5994 40.5876 54.4808 40.5874 54.3622 40.5874C45.5149 40.5874 37.2972 41.7566 30.7162 43.1222C27.7727 43.7674 25.1567 44.4542 22.9582 45.0905ZM33.4305 52.4743L29.5569 54.7108L33.5064 56.991L32.1894 61.9061L36.8767 60.6502L39.3585 64.9487L41.8438 60.6441L46.5537 61.9061L45.2916 57.1962L49.5966 54.7107L45.89 52.5707L47.1569 47.8428L42.145 49.1858L39.5017 44.6075L36.9044 49.1062L32.1895 47.8429L33.4305 52.4743ZM36.6538 49.5403C36.0684 49.8547 35.541 50.2631 35.0916 50.7452L32.4055 48.059L32.4043 48.0546L36.7806 49.3207L36.6538 49.5403ZM33.4925 52.7055L33.6643 53.347C33.5518 53.7844 33.4871 54.2411 33.4762 54.711H29.8621L29.8582 54.7088L33.4925 52.7055ZM42.0265 60.3277L41.9675 60.4298L46.3385 61.6944L46.3372 61.6899L43.7629 59.1156C43.2631 59.6153 42.676 60.0276 42.0265 60.3277ZM39.3567 64.6474L37.1178 60.5856L37.4093 60.5074C38.0188 60.7331 38.6748 60.863 39.3589 60.8788V64.6434L39.3567 64.6474ZM33.724 57.1167L32.4004 61.6916L32.4049 61.6904L35.1119 58.9834C34.6404 58.4825 34.2537 57.9008 33.9748 57.2614L33.724 57.1167ZM45.2271 56.9552L49.2953 54.7127L49.2913 54.7105H45.5269C45.528 54.758 45.5286 54.8057 45.5286 54.8535C45.5286 55.5479 45.4111 56.2149 45.195 56.8356L45.2271 56.9552ZM45.6756 52.447L44.77 51.9241C44.5714 51.5677 44.3377 51.2335 44.0735 50.9262L46.9412 48.0586L46.9456 48.0573L45.6756 52.447ZM41.8977 49.252L39.5037 44.9089L39.5014 44.9128L39.5015 48.8265C40.3138 48.8265 41.0885 48.9871 41.7957 49.2784H41.7991L41.8977 49.252ZM35.9814 55.9328C36.9952 57.6888 38.495 58.9431 40.1015 59.5525C37.203 59.1152 34.9812 56.6137 34.9812 53.5932C34.9812 53.5112 34.9828 53.4295 34.9861 53.3483C35.1686 54.2195 35.498 55.0955 35.9814 55.9328ZM40.3131 58.347C39.0184 57.8559 37.8097 56.845 36.9926 55.4297C36.6031 54.7551 36.3377 54.0493 36.1906 53.3474C36.188 53.4126 36.1867 53.4782 36.1867 53.5442C36.1867 55.9784 37.9772 57.9944 40.3131 58.347Z" fill="#5D4D35"/>
<path fill-rule="evenodd" clip-rule="evenodd" d="M23.3883 49.487L15.803 47.9186L16.8853 47.0468C15.9599 47.3809 15.4641 47.5816 15.4641 47.5816V47.3871L14.8703 47.8654C14.7691 47.9468 14.7192 48.0716 14.741 48.1884C14.7628 48.3052 14.8526 48.3945 14.9736 48.4195L23.6248 50.2083L23.3883 49.487ZM26.3361 44.1665C26.1114 44.2245 25.8896 44.2824 25.6707 44.3402L25.6706 44.3401C25.8896 44.2824 26.1114 44.2245 26.3361 44.1665L26.3361 44.1665Z" fill="#5D4D35"/>
<path fill-rule="evenodd" clip-rule="evenodd" d="M54.1243 79.2235L54.1243 40.5876L54.3622 40.5873C54.6802 40.5873 54.9974 40.5888 55.3138 40.5918L55.3138 79.2235H54.1243ZM54.1243 27.4787C54.2035 27.4785 54.2828 27.4784 54.3622 27.4784C54.6802 27.4784 54.9974 27.4799 55.3138 27.4831L55.3138 0.237793H54.1243V27.4787Z" fill="#5D4D35"/>
<path fill-rule="evenodd" clip-rule="evenodd" d="M23.7909 45.1429C23.2966 45.2809 22.8205 45.4173 22.3634 45.5512V45.5819C22.3634 52.5505 25.6641 59.1071 31.2616 63.2579L53.1385 79.4803C54.0727 80.1731 55.3501 80.1731 56.2843 79.4803L78.1612 63.2579C83.6731 59.1706 86.9579 52.7504 87.0571 45.9013C86.6044 45.7634 86.129 45.6217 85.6319 45.4773V45.5819C85.6319 52.0984 82.5454 58.2298 77.311 62.1113L55.434 78.3337C55.0048 78.652 54.418 78.652 53.9888 78.3337L32.1118 62.1113C26.8774 58.2298 23.7909 52.0984 23.7909 45.5819V45.1429ZM87.0594 32.2201C86.6052 32.0938 86.129 31.9644 85.6319 31.8327V8.70145C85.6319 8.36579 85.4292 8.09775 85.1463 8.00331C80.3636 6.4067 65.2376 1.66525 54.7114 1.66525C44.1852 1.66525 29.0592 6.4067 24.2765 8.00331C23.9936 8.09775 23.7909 8.36578 23.7909 8.70145V31.6499C23.2959 31.7779 22.8198 31.9043 22.3634 32.0282V8.70145C22.3634 7.77042 22.9413 6.94413 23.8245 6.64931C28.578 5.06246 43.918 0.237793 54.7114 0.237793C65.5048 0.237793 80.8448 5.06246 85.5983 6.64931C86.4814 6.94413 87.0594 7.77042 87.0594 8.70145V32.2201Z" fill="#5D4D35"/>
<path fill-rule="evenodd" clip-rule="evenodd" d="M23.0486 51.0314C23.121 51.3145 23.1989 51.5958 23.2824 51.8753L4.24307 55.9031L3.02981 56.1597L3.60157 55.1454L6.0917 50.7278L1.13753 47.8851L0 47.2324L1.21326 46.9757L15.4641 43.9609V44.8543L2.35079 47.6284L6.50367 50.0114L7.30497 50.4712L6.90221 51.1857L4.81483 54.8887L23.0486 51.0314Z" fill="#5D4D35"/>
</svg>
